<?xml version="1.0" encoding="UTF-8" standalone="no"?>
<!-- Created with Inkscape (http://www.inkscape.org/) -->

<svg
   xmlns:dc="http://purl.org/dc/elements/1.1/"
   xmlns:cc="http://creativecommons.org/ns#"
   xmlns:rdf="http://www.w3.org/1999/02/22-rdf-syntax-ns#"
   xmlns:svg="http://www.w3.org/2000/svg"
   xmlns="http://www.w3.org/2000/svg"
   xmlns:sodipodi="http://sodipodi.sourceforge.net/DTD/sodipodi-0.dtd"
   xmlns:inkscape="http://www.inkscape.org/namespaces/inkscape"
   width="210mm"
   height="297mm"
   viewBox="0 0 210 297"
   version="1.1"
   id="svg4506"
   inkscape:version="0.92.1 r"
   sodipodi:docname="badhand.svg">
  <defs
     id="defs4500" />
  <sodipodi:namedview
     id="base"
     pagecolor="#ffffff"
     bordercolor="#666666"
     borderopacity="1.0"
     inkscape:pageopacity="0.0"
     inkscape:pageshadow="2"
     inkscape:zoom="0.35"
     inkscape:cx="-182.85714"
     inkscape:cy="560"
     inkscape:document-units="mm"
     inkscape:current-layer="layer1"
     showgrid="false"
     inkscape:window-width="1366"
     inkscape:window-height="704"
     inkscape:window-x="0"
     inkscape:window-y="27"
     inkscape:window-maximized="1" />
  <metadata
     id="metadata4503">
    <rdf:RDF>
      <cc:Work
         rdf:about="">
        <dc:format>image/svg+xml</dc:format>
        <dc:type
           rdf:resource="http://purl.org/dc/dcmitype/StillImage" />
        <dc:title></dc:title>
      </cc:Work>
    </rdf:RDF>
  </metadata>
  <g
     inkscape:label="Layer 1"
     inkscape:groupmode="layer"
     id="layer1">
    <path
       style="fill:#000000;fill-opacity:1;stroke-width:0.26458332"
       id="path5053"
       d="m 138.72697,155.1573 c -3.30483,-0.18906 -6.61722,-0.15431 -9.92595,-0.14662 -2.82993,0.22081 -5.58026,-0.41274 -8.32093,-1.00937 -1.53371,-0.43963 -3.06238,-0.80495 -4.65365,-0.99737 -1.17152,-0.016 -2.09837,-0.17994 -3.21743,-0.45644 -0.92591,-0.28482 -2.04143,-0.63597 -2.74783,-1.33214 -1.0612,-0.38778 -2.05151,-0.91501 -3.05765,-1.42739 -1.2229,-0.81183 -2.64692,-1.21533 -3.91706,-1.93775 -1.34024,-0.76396 -2.899358,-0.89262 -4.407258,-1.00003 -1.426316,-0.0788 -2.854778,-0.0514 -4.28231,-0.0447 -0.964761,0.0679 -1.78402,-0.4191 -2.446039,-1.0699 -0.575778,-0.86491 -0.90555,-1.83075 -1.107226,-2.84214 -0.302185,-2.26371 -0.195865,-4.56116 0.01453,-6.82852 0.173196,-1.56588 0.292738,-3.13411 0.347551,-4.70822 0.0429,-1.06363 0.02977,-2.12826 0.0064,-3.19212 -0.01209,-0.74749 -0.619551,-0.97372 -1.212781,-1.29249 -0.724398,-0.29876 -1.315443,-0.78191 -2.048542,-1.06024 -0.7487,-0.43137 -1.535261,-0.74992 -2.334792,-1.10812 -1.094618,-0.32857 -2.19838,-0.53891 -3.295229,-0.85883 -1.382353,-0.33558 -2.814405,-0.40328 -4.231317,-0.4463 -0.865444,-0.0191 -1.731484,-0.0191 -2.596624,0.0123 -0.513778,0.0617 -1.237705,-0.80803 -1.51539,-1.18652 -0.776632,-1.89861 -0.694658,-4.05181 -0.780016,-6.07533 -0.03373,-1.77446 -0.191521,-3.55613 0.06752,-5.31882 0.258326,-1.34958 1.017982,-2.45251 2.012805,-3.36417 4.138334,-3.82761 9.053716,-5.15676 13.731012,-7.606703 3.45472,-1.793364 8.594243,-4.731644 -7.162556,4.168693 -1.370309,0.77403 1.274423,-0.88535 1.639247,-1.18619 1.127596,-0.91932 2.070184,-2.06044 2.964262,-3.202827 1.102574,-1.328552 2.01763,-2.775987 2.768235,-4.326437 0.739941,-1.382826 1.028962,-2.893838 1.204147,-4.43316 0.199475,-1.794134 0.103542,-3.571539 -0.199472,-5.344655 -0.29334,-1.709822 -1.572352,-2.336247 -3.106618,-2.724115 -1.690531,-0.32416 -3.418933,-0.304705 -5.132747,-0.298223 -1.968437,-0.0629 -3.834265,0.626719 -5.672487,1.239669 -1.934199,0.809156 -3.844216,1.612495 -5.834385,2.274101 -3.292158,1.737963 -9.513155,4.756216 5.311018,-3.142273 0.480393,-0.255961 -0.885396,0.634862 -1.305301,0.981233 -1.007088,0.830731 -1.316333,1.220261 -2.203783,2.166176 -1.96288,2.21021 -3.455159,4.774819 -4.803701,7.390325 -0.878342,1.78657 -1.427009,3.707564 -2.037339,5.596467 -0.610558,1.675629 -1.086718,3.395939 -1.501966,5.129489 -0.300302,1.38209 -0.474305,2.79092 -0.531955,4.2035 -0.04218,1.18319 -0.05653,2.36716 -0.01865,3.55054 -3.235812,2.08755 -6.353903,4.37 -9.707435,6.26266 -0.245857,0.13876 -0.51556,-0.23024 -0.772002,-0.34829 -1.315736,-0.60567 -2.384911,-1.37216 -3.479866,-2.31592 -2.029288,-2.06973 -4.059684,-4.06415 -6.43323,-5.74295 -2.12503,-1.64728 -4.451749,-2.87837 -6.995043,-3.72789 -2.058961,-0.63072 -4.204195,-0.76754 -6.341954,-0.8271 -1.584145,-0.11617 -3.058392,-0.61015 -4.558086,-1.08117 -0.670234,-0.18946 -0.723055,-0.41844 -1.27669,0.0392 -0.118161,0.0977 -0.495869,0.35856 -0.362221,0.28344 8.989441,-5.052645 12.021278,-7.463812 8.878856,-4.993056 -0.586216,0.769926 -1.055629,1.578276 -1.272067,2.524816 -0.02082,0.57533 -0.393049,1.40597 -0.04961,1.93268 -15.243182,8.97233 -6.579745,6.38254 -11.920206,3.78067 -0.852304,-0.59753 -1.760835,-1.06863 -2.670363,-1.5735 -1.988099,-0.69105 -3.874544,-1.62737 -5.578968,-2.85883 C 8.3943573,101.30563 6.8744996,98.695572 5.3596259,96.167627 3.6741933,93.502394 3.7241977,90.590356 4.1414927,87.579381 4.445454,85.671376 4.9476466,83.804788 5.3572478,81.919388 c 0.1158121,-1.158308 0.8380013,-2.046605 1.4673138,-2.98605 1.9997428,-2.508501 3.7139914,-5.224074 5.6554904,-7.776236 1.274291,-1.5937 2.572977,-3.179758 3.969461,-4.669018 0.920597,-0.981755 1.94395,-1.859674 3.011667,-2.675974 3.788566,-2.876788 7.799047,-6.09227 12.563499,-6.710225 0.904669,-0.04118 1.810616,-0.0249 2.715962,-0.03043 0.05687,-0.079 0.255397,-0.284794 0.170608,-0.23699 -11.97636,6.752384 -7.014998,7.902536 -10.125427,4.833009 C 23.553438,60.336503 21.724519,60.1644 20.020607,59.98474 16.447959,59.70933 12.861478,59.743564 9.2814144,59.785678 6.6510669,59.628796 4.248649,60.437013 1.9719029,61.674107 -2.7543836,64.396487 7.108019,58.709535 9.1101856,57.698443 9.5423436,57.480205 8.3804719,58.336727 8.0449189,58.685715 6.8674622,59.910318 6.0680657,61.2654 5.2851002,62.758221 3.7048151,66.280527 2.9036639,70.075834 1.9832581,73.806102 c -1.42079498,5.708314 -4.150396,10.970085 -6.4609732,16.349826 -1.3054997,3.109132 -2.5737971,6.235399 -3.7340484,9.402075 -0.576815,1.574307 -1.1245927,3.078147 -1.3792684,4.733487 -0.037395,1.69269 1.056365,2.87011 2.0439139,4.11314 0.098617,1.38372 0.5016761,0.0184 0.3851058,0.0781 -3.2290838,1.65457 -6.2500888,3.71873 -9.5611328,5.20249 -0.33805,0.15149 0.261364,-0.69795 0.323933,-1.06307 0.172528,-1.00678 0.248953,-3.29552 0.294135,-4.21418 0.04989,-2.78032 0.08062,-5.63771 -0.609645,-8.35715 -0.200531,-0.790037 -0.905915,-2.587092 -1.181896,-3.317181 -1.11301,-2.589641 -2.025124,-5.266076 -2.634884,-8.018827 -0.490807,-2.413847 -0.829972,-4.811774 -0.995543,-7.271502 -0.0985,-4.817115 -0.615843,-9.601366 -1.073458,-14.392256 -0.217356,-2.457288 0.514458,-4.543107 1.926733,-6.499063 1.316007,4.255105 -0.08169,0.900771 9.274105,-3.704215 0.562107,-0.276674 -1.070152,0.659628 -1.552369,1.059604 -0.800552,0.664016 -1.584477,1.35591 -2.285814,2.123977 -2.595615,2.842582 -3.934877,5.027792 -6.170894,8.246895 -5.446593,8.638114 -10.703776,17.408025 -15.5571,26.394847 -1.378902,2.751346 -2.79695,5.522761 -3.52738,8.532411 -0.393374,1.62086 -0.453662,2.50644 -0.665147,4.18551 -0.239537,3.80218 -0.485251,7.6533 0.09941,11.4334 0.294072,1.58257 0.788445,3.11998 1.398292,4.60728 0.254619,0.62097 0.04415,0.59327 0.405288,0.55302 -0.55904,-4.14244 0.091,-0.60099 -9.526857,4.83764 -0.08919,0.0504 0.184462,-0.10053 0.249208,-0.17994 0.248968,-0.30535 0.228167,-0.66811 0.208048,-1.02941 -0.663684,-1.47349 -1.113851,-2.96672 -1.436606,-4.55168 -0.428691,-3.96301 -1.105403,-7.83625 -2.64133,-11.52655 -0.78691,-1.92317 -1.730968,-2.86311 -3.612062,-3.59726 -3.097626,-0.68945 -6.354326,-0.57275 -9.4878,-0.20854 -2.949752,0.38778 -5.879904,0.92065 -8.849201,1.13877 -1.361594,-0.0202 -2.643174,0.33075 -3.861504,0.92008 -0.315296,0.15251 -1.228428,0.67347 -0.923978,0.50032 2.826025,-1.60727 5.659252,-3.20184 8.488879,-4.80275 -1.994207,1.32693 -3.298378,3.15239 -4.041103,5.39659 -0.332187,3.8342 1.086604,7.59123 2.920674,10.897 2.168057,3.29345 4.601578,6.40501 6.870094,9.63262 3.34917,4.74294 7.68296,8.53365 12.440743,11.79675 4.529584,2.88261 9.33046,5.26623 14.405575,7.01035 2.802075,0.94823 5.709941,1.34251 8.650356,1.45994 3.520198,0.28693 7.003903,0.74451 10.487944,1.31776 2.658296,0.30268 5.232885,0.96457 7.696638,1.99385 0.309079,0.15711 0.628847,0.29476 0.927236,0.47133 0.6560595,0.38823 1.2229369,0.91906 1.8911313,1.28601 1.2341873,0.67776 2.705722,0.95278 4.0496452,1.30809 4.24367684,0.89357 8.5424512,1.47609 12.8100752,2.23816 3.3005383,0.62618 6.6292143,1.14424 9.9173313,1.83373 2.899355,0.56268 5.824951,0.95829 8.73543,1.45311 2.805827,0.62911 5.585957,0.65163 8.379963,0.0149 2.670963,-0.45322 5.213122,-1.3765 7.807227,-2.12047 1.974088,-0.58011 4.02841,-0.69591 6.071496,-0.77141 2.215208,-0.38073 4.453512,-0.54459 6.697274,-0.6149 2.884823,-0.0513 5.769835,-0.0896 8.65491,-0.12434 2.294831,-0.0262 4.589425,0.007 6.884222,0.008 2.736472,-0.15707 5.418119,0.3099 8.100809,0.76604 3.850852,0.64248 7.293157,2.38869 10.663984,4.26999 4.088492,2.25743 7.901789,4.95316 11.944937,7.28698 3.68768,2.02457 7.48794,3.8018 11.49935,5.07274 3.884,1.07271 7.89995,1.49854 11.86765,2.13143 2.91709,0.40076 5.81587,0.60389 8.55945,1.7292 4.50536,2.20621 9.45059,3.3798 14.33462,4.40937 6.03869,1.06072 12.01311,2.46449 17.85829,4.31541 3.67688,0.83914 6.89863,2.67162 10.05987,4.64953 2.2091,1.11339 4.15819,2.72036 6.46304,3.64292 1.11535,0.39472 1.73775,0.22722 2.76533,-0.23192 3.73671,-1.00323 0.96225,-0.29323 -8.70075,4.9906 -0.27118,0.14829 0.51175,-0.34738 0.75651,-0.5361 1.04893,-0.80874 1.9766,-1.7675 2.93616,-2.67673 5.40825,-4.68211 11.82104,-8.1286 18.20047,-11.28542 2.28047,-1.08347 4.73603,-1.74496 6.95333,-2.95909 -22.01816,11.45992 -8.52035,6.15992 -7.20644,3.63063 0.22603,-0.4351 0.38091,-0.91276 0.46311,-1.39613 0.29867,-1.75642 0.0499,-2.93289 -0.11948,-4.72848 -1.08269,-6.39924 -3.65219,-12.44444 -6.37032,-18.30122 -1.41463,-2.79101 -2.93143,-5.62551 -5.19728,-7.82665 -1.30331,-0.64304 -2.97202,-0.67843 -4.41785,-0.82457 -3.48303,-0.28499 -6.98075,-0.28872 -10.47285,-0.26758 -2.18466,0.13239 -4.33799,-0.22653 -6.49869,-0.48282 -1.49532,-0.26723 -2.93775,-0.66523 -4.46012,-0.83201 -1.76104,-0.0144 -3.47096,-0.36015 -5.21032,-0.58383 -2.54955,-0.33309 -5.08216,-0.74026 -7.6489,-0.94597 -2.31678,-0.15164 -4.63925,-0.16105 -6.95993,-0.15696 -1.50473,0.009 -3.00955,0.003 -4.51394,0.0391 -0.72315,0.0136 -1.44643,0.0152 -2.16954,0.0295 -0.36186,-0.007 -0.72382,-5.3e-4 -1.08554,0.01 0,0 9.14116,-6.64143 9.14116,-6.64143 v 0 c 0.35228,0.011 0.70482,0.0171 1.05725,0.009 0.69838,0.0134 1.397,0.012 2.09546,0.0222 1.47552,0.0299 2.95136,0.0134 4.42696,0.0393 2.29713,0.0443 4.59364,0.13142 6.88471,0.30955 2.59535,0.2155 5.15697,0.66862 7.74748,0.92876 1.75922,0.20162 3.51557,0.38448 5.2786,0.54165 1.50802,0.2139 2.96389,0.62344 4.46973,0.83665 2.09226,0.31668 4.1882,0.51942 6.30828,0.45395 3.49768,0.1069 6.99535,0.21753 10.49186,0.35821 1.73813,0.13744 3.74776,0.0615 5.04547,1.40107 2.0113,2.56159 3.45701,5.49937 4.76692,8.46837 2.55675,6.03178 5.22068,12.08357 6.60194,18.51599 0.38253,2.25147 1.31888,5.56102 -0.064,7.71112 -2.31089,3.59292 -17.07431,-3.20993 -11.00138,6.57368 -2.23258,1.00678 -4.58858,1.71973 -6.77846,2.8266 -4.22723,2.17791 -1.7044,0.91212 6.17909,-3.71419 0.51797,-0.30397 -1.0555,0.57508 -1.56303,0.89618 -0.28112,0.17786 -2.76226,1.92115 -3.03567,2.1332 -0.43743,0.33927 -0.84349,0.71716 -1.26524,1.07575 -4.38812,4.08685 -6.71379,7.30775 -13.93428,9.22234 -1.11949,0.21458 -2.15875,0.01 -3.17967,-0.49865 -2.15275,-1.18527 -4.03394,-2.80644 -6.21473,-3.95114 -3.09878,-1.91532 -6.35853,-3.45306 -9.86628,-4.47522 -5.68828,-1.98721 -11.49461,-3.54351 -17.46456,-4.43547 -5.06263,-1.01579 -10.17519,-2.15586 -14.93664,-4.19672 -2.69612,-0.90612 -5.54007,-1.10947 -8.32779,-1.62215 -3.98191,-0.6145 -7.99257,-1.19678 -11.8637,-2.34079 -4.06114,-1.35254 -7.940974,-3.09813 -11.645339,-5.25447 -3.983476,-2.38858 -7.768703,-5.09198 -11.865279,-7.29226 -3.386558,-1.76816 -6.884048,-3.25798 -10.695686,-3.81592 -2.671302,-0.41905 -5.348366,-0.71574 -8.058763,-0.57945 -2.297668,-0.003 -4.595178,0.0236 -6.892864,0.004 -2.860498,-0.0175 -5.723533,-0.0254 -8.580697,0.13389 -2.279954,0.15655 -4.541901,0.44039 -6.81183,0.69245 -1.974742,0.10674 -3.939514,0.33069 -5.836703,0.92156 -2.588001,0.76014 -5.16286,1.56349 -7.830378,2.01001 -2.871055,0.45158 -5.702913,0.27989 -8.539556,-0.36885 -2.950177,-0.45113 -5.910633,-0.84109 -8.8376333,-1.43372 -3.231529,-0.62784 -6.428732,-1.41977 -9.67612874,-1.96629 -4.33060746,-0.73174 -8.67433626,-1.39164 -12.98734596,-2.21943 -1.209887,-0.30346 -2.015355,-0.45703 -3.156322,-0.9153 -1.417076,-0.56918 -2.543803,-1.60178 -3.974456,-2.14377 -2.370637,-0.91487 -4.788172,-1.65642 -7.324996,-1.95915 -3.518151,-0.57826 -7.050981,-0.92485 -10.613667,-1.08769 -2.938463,-0.21889 -5.800897,-0.83853 -8.554966,-1.91087 -5.030277,-1.93503 -9.8263,-4.384 -14.302745,-7.39913 -4.82872,-3.36698 -9.383837,-7.16608 -12.885436,-11.94665 -2.360494,-3.22259 -4.889564,-6.32944 -7.075628,-9.67325 -1.866349,-3.57658 -3.120538,-7.51961 -3.438019,-11.55298 0.534963,-2.53621 1.675122,-4.43618 3.700097,-6.09512 5.79429,-3.40461 9.194652,-6.90144 15.373265,-7.17369 2.885287,-0.25931 5.753156,-0.6617 8.63002,-0.9979 2.793257,-0.22106 6.641256,-0.4077 9.382498,0.17851 0.257405,0.055 0.492152,0.18691 0.738227,0.28037 1.926416,0.97339 3.140935,2.3676 3.808664,4.46676 1.415473,3.75145 2.063494,7.68357 2.80891,11.6111 0.438724,1.57945 0.976391,3.06978 1.71392,4.53396 0.03395,0.17602 0.196757,0.97914 0.196464,1.14884 -0.0073,4.25109 -7.319055,9.36226 -10.579584,6.34153 -1.169903,-1.62199 -1.178531,-4.15262 -1.863186,-5.99223 -0.558569,-3.90333 -0.203782,-7.85031 -0.02773,-11.77386 0.155655,-1.88874 0.141354,-2.49508 0.532768,-4.31755 0.690589,-3.21546 2.253289,-6.12243 3.855072,-8.964217 5.23436,-8.968206 10.769531,-17.761082 16.057813,-26.698059 2.231372,-3.504293 4.324197,-7.266763 7.268627,-10.24913 3.206405,-3.247716 7.674715,-5.043839 11.896672,-6.776979 0.388064,-0.159301 0.432182,0.719097 0.648272,1.078648 -1.583921,1.67147 -2.633598,3.500588 -2.600832,5.886373 0.279944,4.805717 0.579402,9.6124 0.982557,14.408761 0.331707,2.367796 0.943687,4.657727 1.281673,7.018724 0.417521,2.748777 1.1867247,5.41892 2.2908238,7.974396 0.4641453,1.157237 0.9664829,2.290077 1.2661577,3.506525 0.6916618,2.807613 0.6188339,5.738078 0.5985734,8.603728 0.00198,0.21272 0.031059,3.69032 0.046989,4.13694 0.015944,0.447 0.4484841,1.07443 0.087822,1.33897 -5.4206879,3.97611 -7.9403729,8.91744 -10.6371599,5.01481 -1.095162,-1.53466 -2.294955,-2.9742 -2.285799,-4.97711 0.283014,-1.96938 0.888075,-3.31529 1.671307,-5.15654 1.367877,-3.21564 2.807339,-6.401129 4.173912,-9.61738 2.142105,-5.222973 4.290273,-10.477005 5.8733616,-15.898333 0.9490167,-3.767961 1.6802893,-7.599961 3.1485088,-11.216902 3.0356311,-6.946498 7.4642053,-8.652928 15.0779076,-12.391382 2.411688,-1.069798 4.895661,-1.649092 7.554033,-1.444117 3.610616,0.05737 7.224288,0.08303 10.83059,0.276127 2.001628,0.222912 3.929837,0.650264 5.372608,2.172539 0.15399,0.153948 0.793141,0.784238 0.920816,0.947936 2.970048,3.808097 -5.413235,7.764153 -9.56207,6.885328 -0.85821,-0.01138 -1.726365,-0.0072 -2.568133,0.17997 -0.472163,0.116253 -1.980002,0.85367 -1.320721,0.466873 15.904249,-9.330975 11.21856,-6.718591 8.04573,-4.628039 -1.07555,0.812298 -2.156783,1.597462 -3.119062,2.547663 -1.505649,1.455991 -2.824853,3.086221 -4.22434,4.644649 -1.989865,2.444263 -3.683153,5.082966 -5.482567,7.663392 -0.178503,0.218448 -0.378447,0.421005 -0.535508,0.655343 -0.01502,0.02241 -0.485637,0.96615 -0.571992,1.0667 -0.06938,0.08078 -0.207615,0.08191 -0.272947,0.166007 -0.13581,0.174811 0.01681,0.487918 -0.159508,0.644655 -0.505157,1.916708 -1.220111,3.775771 -1.569813,5.734375 -0.497263,2.764872 -0.515925,5.391531 0.936248,7.89495 1.374155,2.430076 2.855179,4.896956 5.073813,6.651773 1.77043,1.144193 3.698745,1.9153 5.669355,2.644943 0.947595,0.46776 1.820588,1.05055 2.74156,1.56705 4.927118,3.137 0.596985,3.26906 -7.728374,7.18125 0.273076,0.37831 0.117164,-1.63577 0.229484,-1.88699 0.173655,-1.05485 0.386067,-2.08926 1.091017,-2.93735 1.678519,-4.348538 7.834811,-7.731006 12.232979,-6.072793 1.392563,0.470746 2.822382,0.817078 4.296482,0.897879 2.193382,0.133437 4.377706,0.384419 6.456881,1.144913 2.580584,0.968621 4.921961,2.321761 7.088637,4.034071 2.363147,1.72416 4.447122,3.7274 6.568913,5.72899 0.770906,0.57851 1.559717,1.23664 2.495482,1.53926 0.250444,0.081 0.512844,0.16642 0.775478,0.14891 0.154267,-0.0103 0.533439,-0.31238 0.404196,-0.22752 -2.990104,1.96324 -5.991762,3.90882 -8.987642,5.86323 0.02886,-1.2043 -0.0011,-2.40845 0.02519,-3.61278 0.06874,-1.49288 0.211947,-2.97293 0.543933,-4.43521 0.384218,-1.74167 0.786043,-3.50512 1.406356,-5.17557 0.591764,-1.98624 1.3595,-3.930744 2.141535,-5.847354 1.332767,-2.69123 2.821368,-5.33959 4.730768,-7.66727 4.419179,-5.216223 10.691008,-8.285573 16.90602,-10.987159 1.964616,-0.694248 3.849169,-1.590305 5.829078,-2.246482 1.940978,-0.611658 3.912904,-1.125259 5.968764,-1.016831 1.774937,0.03776 3.573931,0.08928 5.291482,0.583632 1.825953,0.664318 3.337486,1.755547 3.761065,3.769862 0.262891,1.857404 0.497791,3.697214 0.314611,5.578695 -0.0818,1.650087 -0.315103,3.290721 -1.02253,4.803304 -0.776536,1.58913 -1.51734,3.193224 -2.699578,4.539456 -0.884619,1.179415 -1.783403,2.340893 -2.779501,3.430503 -0.70259,0.521443 -0.359463,0.232719 -1.023435,0.873183 -3.748884,2.962361 -8.208679,4.999491 -12.456834,7.202901 -3.995502,1.87386 -11.638682,6.04457 5.286962,-3.42032 -1.055624,0.59302 -1.914461,1.46936 -2.367902,2.60375 -0.390789,1.70278 -0.326316,3.41752 -0.290078,5.16095 0.04253,1.77455 -0.01193,3.66209 0.614672,5.3447 0.160462,0.16354 0.482322,0.43803 0.734351,0.43811 0.0049,0 0.244181,-0.30235 0.271116,-0.11512 0.848833,0.0302 1.698355,0.0427 2.545731,0.10561 1.466683,0.12429 2.947402,0.24724 4.370093,0.64529 1.137055,0.30944 2.320999,0.468 3.395832,0.98129 0.804585,0.35061 1.610516,0.68214 2.391833,1.08089 0.712513,0.36925 1.385936,0.80832 2.093892,1.1869 0.893156,0.58348 1.626686,1.15815 1.808976,2.28021 -0.0222,1.08938 -0.0418,2.17875 -0.0618,3.26824 -0.0659,1.61647 -0.17518,3.23037 -0.41665,4.83118 -0.27313,2.1585 -0.51315,4.31146 -0.0698,6.47149 0.16032,0.77343 0.41131,1.51297 0.84752,2.17564 0.54665,0.43917 1.23595,0.45519 1.91007,0.4335 1.42538,0.005 2.85264,0.041 4.27248,0.17397 1.63775,0.17293 3.27101,0.47676 4.70307,1.34041 1.30112,0.65141 2.67789,1.14803 3.92379,1.9107 1.08011,0.5622 2.25565,0.92454 3.27551,1.58953 0.74018,0.42833 1.52984,0.77837 2.37738,0.92382 1.03094,0.19797 2.09057,0.20937 3.12215,0.42482 1.58985,0.26629 3.14408,0.65685 4.69492,1.09297 2.5852,0.68236 5.20467,1.13746 7.89446,0.99699 3.44342,0.008 6.88953,0.0334 10.32957,-0.14663 0,0 -9.08456,6.60032 -9.08456,6.60032 z"
       inkscape:connector-curvature="0" />
  </g>
</svg>
