<?xml version="1.0" encoding="UTF-8" standalone="no"?>
<!-- Created with Inkscape (http://www.inkscape.org/) -->

<svg
   xmlns:dc="http://purl.org/dc/elements/1.1/"
   xmlns:cc="http://creativecommons.org/ns#"
   xmlns:rdf="http://www.w3.org/1999/02/22-rdf-syntax-ns#"
   xmlns:svg="http://www.w3.org/2000/svg"
   xmlns="http://www.w3.org/2000/svg"
   xmlns:sodipodi="http://sodipodi.sourceforge.net/DTD/sodipodi-0.dtd"
   xmlns:inkscape="http://www.inkscape.org/namespaces/inkscape"
   width="210mm"
   height="297mm"
   viewBox="0 0 210 297"
   version="1.1"
   id="svg4506"
   inkscape:version="0.92.1 r"
   sodipodi:docname="saw.svg">
  <defs
     id="defs4500" />
  <sodipodi:namedview
     id="base"
     pagecolor="#ffffff"
     bordercolor="#666666"
     borderopacity="1.0"
     inkscape:pageopacity="0.0"
     inkscape:pageshadow="2"
     inkscape:zoom="0.35"
     inkscape:cx="-182.85714"
     inkscape:cy="560"
     inkscape:document-units="mm"
     inkscape:current-layer="layer1"
     showgrid="false"
     inkscape:window-width="1366"
     inkscape:window-height="704"
     inkscape:window-x="0"
     inkscape:window-y="27"
     inkscape:window-maximized="1" />
  <metadata
     id="metadata4503">
    <rdf:RDF>
      <cc:Work
         rdf:about="">
        <dc:format>image/svg+xml</dc:format>
        <dc:type
           rdf:resource="http://purl.org/dc/dcmitype/StillImage" />
        <dc:title></dc:title>
      </cc:Work>
    </rdf:RDF>
  </metadata>
  <g
     inkscape:label="Layer 1"
     inkscape:groupmode="layer"
     id="layer1">
    <path
       style="fill:#000000;fill-opacity:1;stroke-width:0.26458332"
       id="path4510"
       d="m 182.42983,203.13958 c -2.74797,-2.07983 -6.2129,-3.01187 -9.49538,-3.89157 -3.31629,-0.75198 -6.69673,-1.13249 -9.99464,-1.96975 -2.92171,-0.63508 -5.70872,-1.72447 -8.62794,-2.36756 -2.40647,-0.2798 -4.76464,-0.6664 -7.13133,-1.18606 -2.33781,-0.55669 -4.55544,-1.45017 -6.66356,-2.59198 -1.77619,-0.8356 -3.52296,-1.75202 -5.36819,-2.42993 -1.38081,-0.61682 -2.75587,-1.28885 -3.95541,-2.2178 -1.11135,-0.78751 -1.816,-1.77216 -2.35745,-3.0124 -0.87071,-2.18333 -0.39767,-3.81321 0.54349,-5.87333 1.4176,-2.80146 3.70271,-4.98638 5.83251,-7.24027 2.44489,-2.51716 4.09668,-5.6129 5.73132,-8.68073 1.55314,-3.17238 2.74737,-6.50552 3.88805,-9.84387 0.84561,-2.87484 1.58155,-5.7754 1.944,-8.7526 0.33739,-1.77314 0.48805,-3.60118 1.07972,-5.31254 0.70856,-1.61522 1.59259,-3.13849 2.73982,-4.47947 0.74103,-0.66898 1.20949,-1.49354 1.6696,-2.35815 0.55251,-0.76895 0.63001,-1.66171 0.71063,-2.57897 0.24931,-2.05927 -1.29185,-3.07594 -2.73412,-4.27741 -5.64011,-3.98527 -11.29611,-7.93054 -16.80316,-12.10172 -10.74481,-7.76935 -23.49609,-11.82365 -35.893208,-16.108164 -6.436167,-1.967831 -12.867516,-4.68979 -19.649874,-5.241653 -0.920676,-0.07491 -1.84668,-0.05288 -2.770023,-0.07932 -3.577675,-0.112627 -7.168084,0.515911 -10.744139,0.185225 -1.67825,-0.155192 -2.024661,-0.354325 -3.546774,-0.850723 -1.790454,-0.600334 -3.322238,-1.562841 -4.313381,-3.18085 -0.166552,-0.698177 -0.454649,-1.248974 -0.845952,-1.831594 -0.736438,-0.878819 -1.472747,-1.716683 -2.338136,-2.476598 -0.961467,-0.937194 -2.154981,-1.175567 -3.439067,-1.302634 -1.971027,-0.110008 -3.946642,-0.106037 -5.9201,-0.12687 -2.554446,0.0028 -5.108818,0.0235 -7.66314,0.0481 -1.614411,0.0154 -3.228615,0.03077 -4.843058,0.03854 -0.918776,0.07746 -1.892837,-0.137988 -2.767015,0.183523 -3.320615,2.374326 1.0491,-0.773051 8.570542,-4.788053 0.276257,-0.147468 -0.48193,0.406572 -0.676164,0.652208 -0.3083,0.389896 -0.59147,0.803667 -0.822888,1.243566 -0.926894,1.761903 -1.339705,3.293406 -1.992519,5.217745 -1.577573,5.706583 -3.151002,11.402131 -5.145133,16.978872 -1.809776,4.07178 -3.377698,8.2285 -4.878808,12.42174 -1.453629,4.97199 -3.980324,9.42235 -7.049354,13.55431 -1.218891,1.64008 -2.445013,3.30313 -4.160223,4.44752 -1.213447,0.75494 -2.414702,1.51997 -3.5663991,2.36767 -0.5202529,0.50311 -0.9953959,1.08725 -1.353575,1.7168 -0.3831781,1.38116 -0.6000401,2.8187 -0.8238908,4.23646 -0.4142677,2.19444 -0.9645235,4.36001 -1.4004608,6.54984 -0.2322004,1.0587 -0.5452176,2.0994 -0.874899,3.13155 0,0 -10.1140602,4.80858 -10.1140602,4.80858 v 0 c 0.265322,-1.0676 0.7557166,-2.07036 1.0647558,-3.12695 0.432154,-2.16689 1.098741,-4.28283 1.3319566,-6.48656 0.2747151,-1.4471 0.5882096,-2.88845 0.6651512,-4.36116 0.1729392,-0.87232 0.6509839,-1.50929 1.1786317,-2.21606 0.92437925,-1.11282 2.30974315,-1.82188 3.5387536,-2.55104 0.5890297,-0.41874 1.2652705,-0.72044 1.8221901,-1.18236 1.0835865,-0.89873 1.964486,-2.03824 2.8509605,-3.11804 3.2707444,-3.96709 5.9348924,-8.31537 7.3493664,-13.30646 1.425532,-4.18394 2.775008,-8.39017 4.707201,-12.37849 2.279548,-5.535763 4.173162,-11.206549 5.50372,-17.052406 1.86725,-7.522208 2.911422,-11.449532 13.203925,-13.491626 0.949211,-0.03864 1.898041,-0.0058 2.847827,0.0028 1.580957,0.0073 3.161686,0.02156 4.742645,0.03246 2.525663,0.01699 5.051362,0.02397 7.577072,0.01508 2.062792,-0.0254 4.142893,-0.124614 6.194859,0.128539 1.435671,0.272577 2.722599,0.783662 3.770799,1.844715 0.937241,0.810276 1.764694,1.712645 2.573573,2.649392 0.444468,0.60193 0.838253,1.176555 0.898522,1.941473 0.679926,1.434949 2.145438,2.124628 3.569682,2.660536 4.524771,1.40738 9.170484,0.559657 13.831223,0.649444 0.931426,0.06546 1.867868,0.07974 2.794275,0.196387 6.593554,0.830204 12.710671,3.871931 18.9421,5.960496 12.44992,4.666472 25.19054,8.97813 36.5514,16.01981 5.66002,4.12923 11.45483,8.04305 17.40336,11.746 1.73016,1.24929 3.81865,2.57381 3.624,4.99619 -0.0306,0.98404 -1e-4,2.14823 -0.44782,3.02602 -0.55204,0.89698 -0.87191,1.90762 -1.65994,2.64951 -1.25993,1.17831 -2.16114,2.54158 -2.92165,4.08957 -0.73668,1.63022 -0.88424,3.40313 -1.31937,5.13106 -0.44862,3.0558 -1.10676,6.0502 -2.02071,9.00487 -1.03465,3.39947 -2.37986,6.71676 -3.75739,9.99103 -1.63764,3.12017 -3.29708,6.26491 -5.60841,8.95071 -2.08433,2.18002 -4.33085,4.26374 -5.86333,6.89194 -0.85697,1.62562 -1.55851,3.13089 -0.82883,4.94984 0.45473,1.06498 1.17368,1.79027 2.07523,2.50215 1.17463,0.82948 2.4634,1.47146 3.80342,1.99069 1.777,0.82561 3.51128,1.74162 5.27732,2.59043 2.08778,0.98503 4.20557,1.90275 6.47849,2.37536 2.37556,0.49436 4.78485,0.67958 7.1532,1.20504 2.86703,0.74834 5.63984,1.82878 8.54924,2.42557 3.2889,0.76736 6.65699,1.15424 9.9096,2.07757 3.42223,1.02727 6.84979,2.119 10.02605,3.78209 0,0 -9.36931,6.16468 -9.36931,6.16468 z"
       inkscape:connector-curvature="0" />
    <path
       style="fill:#000000;fill-opacity:1;stroke-width:0.26458332"
       id="path4512"
       d="m 23.802557,134.95001 c 2.386857,0.0105 4.532765,0.80946 6.600295,1.93541 0.454613,0.30382 0.919917,0.59223 1.363843,0.91146 1.605314,1.15442 1.439487,1.18634 3.141474,2.48947 2.108023,1.614 4.373547,2.97654 6.625529,4.3754 3.633428,2.09589 7.12415,4.43262 10.781623,6.48617 1.656776,0.99045 3.459049,1.66875 5.370486,1.92486 1.598835,-0.008 3.152002,0.28668 4.729723,0.50113 2.943654,0.33194 5.910543,0.37727 8.869598,0.41605 3.777835,0.14524 7.553235,0.44694 11.170642,1.58437 4.491734,1.58591 8.846212,3.5199 13.169707,5.51116 4.828443,2.0985 9.594113,4.33012 14.377183,6.52566 2.4596,1.18785 4.96906,2.28447 7.20471,3.87163 0.53061,0.3677 1.07862,0.70869 1.62917,1.04529 0,0 -9.42678,6.02718 -9.42678,6.02718 v 0 c -0.51167,-0.38207 -1.0242,-0.76299 -1.54065,-1.13858 -2.11967,-1.53967 -4.46284,-2.6991 -6.77287,-3.92032 -4.674391,-2.30304 -9.367263,-4.56456 -14.142506,-6.65426 -4.386034,-1.92703 -8.862565,-3.64158 -13.403704,-5.1686 -3.572922,-0.91709 -7.229887,-1.35718 -10.920917,-1.40813 -3.07969,-0.0229 -6.178746,0.0917 -9.239285,-0.3148 -1.607111,-0.20992 -3.216836,-0.29783 -4.821139,-0.50875 -1.934872,-0.4617 -3.736853,-1.31315 -5.423382,-2.36322 -3.469015,-2.23928 -6.812954,-4.67297 -10.391267,-6.74189 -3.932293,-2.3268 -7.638761,-4.96583 -11.453936,-7.46495 -2.095746,-0.96396 -4.248748,-1.56267 -6.581643,-1.32176 0,0 9.084096,-6.59998 9.084096,-6.59998 z"
       inkscape:connector-curvature="0" />
  </g>
</svg>
