<?xml version="1.0" encoding="UTF-8" standalone="no"?>
<!-- Created with Inkscape (http://www.inkscape.org/) -->

<svg
   xmlns:dc="http://purl.org/dc/elements/1.1/"
   xmlns:cc="http://creativecommons.org/ns#"
   xmlns:rdf="http://www.w3.org/1999/02/22-rdf-syntax-ns#"
   xmlns:svg="http://www.w3.org/2000/svg"
   xmlns="http://www.w3.org/2000/svg"
   xmlns:sodipodi="http://sodipodi.sourceforge.net/DTD/sodipodi-0.dtd"
   xmlns:inkscape="http://www.inkscape.org/namespaces/inkscape"
   width="61.328766mm"
   height="330.09506mm"
   viewBox="0 0 61.328766 330.09506"
   version="1.1"
   id="svg8"
   inkscape:version="0.92.1 r"
   sodipodi:docname="tree.svg">
  <defs
     id="defs2" />
  <sodipodi:namedview
     id="base"
     pagecolor="#ffffff"
     bordercolor="#666666"
     borderopacity="1.0"
     inkscape:pageopacity="0.0"
     inkscape:pageshadow="2"
     inkscape:zoom="0.35"
     inkscape:cx="-466.69426"
     inkscape:cy="1273.5926"
     inkscape:document-units="mm"
     inkscape:current-layer="layer1"
     showgrid="false"
     inkscape:window-width="1366"
     inkscape:window-height="704"
     inkscape:window-x="0"
     inkscape:window-y="27"
     inkscape:window-maximized="1"
     fit-margin-top="0"
     fit-margin-left="0"
     fit-margin-right="0"
     fit-margin-bottom="0" />
  <metadata
     id="metadata5">
    <rdf:RDF>
      <cc:Work
         rdf:about="">
        <dc:format>image/svg+xml</dc:format>
        <dc:type
           rdf:resource="http://purl.org/dc/dcmitype/StillImage" />
        <dc:title />
      </cc:Work>
    </rdf:RDF>
  </metadata>
  <g
     inkscape:label="Layer 1"
     inkscape:groupmode="layer"
     id="layer1"
     transform="translate(-76.610474,20.032939)">
    <g
       id="g4515"
       transform="translate(58.964286,-6.047619)">
      <path
         inkscape:connector-curvature="0"
         d="m 38.244899,-6.1793466 c 0.314086,5.47362475 0.715107,10.9390386 0.929166,16.4188366 -0.04853,7.436625 -0.402654,14.866144 -0.491948,22.303058 -0.02011,6.300964 0.04339,12.601662 -0.041,18.902338 -0.134485,6.255618 -0.765498,12.480713 -1.384371,18.701702 -0.646063,4.837906 -1.879405,9.57095 -2.79503,14.362158 -1.59004,9.899395 -2.065596,19.925234 -2.43828,29.929814 -0.475332,10.8994 -1.234644,21.7833 -1.789867,32.67819 -0.120737,3.28962 -0.393708,6.61109 -0.025,9.89788 0.08074,0.71974 0.225377,2.02419 0.788313,2.67046 0.12674,0.1455 0.360008,0.13903 0.540012,0.20855 2.070335,0.88794 1.010758,2.71626 0.486862,4.37126 -2.824234,10.35273 -3.873511,21.08858 -4.777637,31.74977 -0.756906,7.34597 -0.504428,14.68571 0.158295,22.01851 0.471448,5.56468 1.034915,11.11908 1.923156,16.6346 0.770686,3.75505 0.940398,7.58072 1.054314,11.40028 0.25899,4.09596 0.499454,8.19354 0.9242,12.2761 0.794962,4.11778 1.031711,8.30174 1.185574,12.48338 0.167789,4.55578 0.68829,9.07939 1.535282,13.55611 0.531871,2.62422 0.817129,5.28463 1.228715,7.92747 0.514318,2.59993 0.868902,5.20245 1.059383,7.84556 0.140182,2.12587 0.228786,4.25439 0.366311,6.38053 0,0 -9.867691,5.05116 -9.867691,5.05116 v 0 c 0.05476,-2.14587 0.0308,-4.29239 -0.119121,-6.43469 -0.220308,-2.59858 -0.672804,-5.14422 -1.148042,-7.70406 -0.419054,-2.66377 -0.601521,-5.35109 -1.032276,-8.01431 -0.699271,-4.56411 -1.196667,-9.14897 -1.426813,-13.76315 -0.217747,-4.14432 -0.585332,-8.26825 -1.296219,-12.36067 -0.389197,-4.11191 -0.653558,-8.2307 -0.932166,-12.35157 -0.137589,-3.78385 -0.39183,-7.55978 -0.987643,-11.30336 -0.703393,-5.58834 -1.034658,-11.2199 -1.684135,-16.8152 -0.31816,-3.12476 -0.584979,-6.24636 -0.535005,-9.39258 0.06979,-4.39393 0.649162,-8.76019 0.968634,-13.13738 1.01657,-10.48435 2.386742,-20.9293 3.654757,-31.38529 0.106639,-0.54666 0.18803,-1.09885 0.319918,-1.63997 0.28306,-1.16136 0.689664,-0.58474 -0.44603,-1.47656 -0.238587,-0.25526 -0.542875,-0.46216 -0.715761,-0.7658 -0.550627,-0.96706 -0.599291,-2.14011 -0.62882,-3.20949 -0.09528,-3.45043 0.414446,-6.88635 0.649199,-10.31892 0.915068,-10.81863 1.716156,-21.65397 1.51854,-32.52125 0.613591,-10.03075 1.75754,-20.018289 2.482116,-30.041105 0.08878,-1.368843 0.118255,-2.742824 0.266351,-4.106523 C 26.088388,81.46482 27.338768,78.218269 27.756331,74.84439 28.633353,68.647734 29.458544,62.427383 29.39628,56.153146 29.33475,49.810179 29.45942,43.46931 29.64394,37.129002 29.798131,29.75271 29.918424,22.37443 29.929457,14.996514 29.70934,9.622041 29.487968,4.210959 28.459768,-1.081305 c 0,0 9.785139,-5.0980416 9.785139,-5.0980416 z"
         id="path4487"
         style="fill:#000000;fill-opacity:1;stroke-width:0.26458332" />
      <path
         inkscape:connector-curvature="0"
         id="path4491"
         d="m 38.244899,-6.1793466 c -0.905047,-0.489821 -1.822038,-1.9807398 -2.715139,-1.4694627 -0.874739,0.500766 0,2.0158728 0,3.0238093 0,1.5119049 0,3.0238096 0,4.53571429 0,1.25992061 0.139137,2.52754721 0,3.77976171 -0.196765,1.7708991 -0.60798,3.5160246 -0.755951,5.2916666 -0.10463,1.2555684 0,2.5198414 0,3.7797624 0,5.039682 0,10.079365 0,15.119048 0,2.267857 0,4.535715 0,6.803569 0,0.712632 0.116967,1.566059 0,2.267858 -0.251984,1.259922 -0.503968,2.519841 -0.755952,3.779763 -0.251984,0.503968 -0.645451,0.959393 -0.755952,1.511904 -0.148256,0.741272 0.148254,1.526584 0,2.267857 -0.110503,0.552511 -0.619296,0.965274 -0.755954,1.511906 -0.183345,0.73338 0,1.511903 0,2.267857 0,1.511904 0,3.023809 0,4.535713 0,0.503967 0.159369,1.033798 0,1.511906 -0.112688,0.338071 -0.64326,0.41788 -0.755951,0.755951 0,3.441311 0.356359,0.04323 -0.755952,2.267858 -0.112691,0.22538 0,0.503967 0,0.755951 0,0.251984 0,0.503968 0,0.755955 0,1.259919 0,2.519838 0,3.77976 0,2.015874 0,4.031745 0,6.047619 0,0.503967 -0.122232,1.022984 0,1.511905 0.136657,0.54663 0.577771,0.977366 0.755952,1.511904 0.07968,0.239053 -0.07969,0.5169 0,0.755954 0.178181,0.534538 0.577773,0.977365 0.755951,1.511903 0.142169,0.426508 0,1.771116 0,2.267858 0,1.511905 0,3.023809 0,4.535715 0,5.039682 0,10.079365 0,15.119048 0,3.527777 0,7.055553 0,10.583333 0,0.18334 0.02431,2.24354 0,2.26785 -0.178178,0.17819 -0.626306,-0.21607 -0.755951,0 -0.698159,1.1636 -1.082792,2.49243 -1.511906,3.77977 -0.07969,0.23905 0.178181,0.57777 0,0.75595 -0.178179,0.17818 -0.577771,-0.17818 -0.755952,0 -0.178178,0.17818 0.07969,0.5169 0,0.75595 -1.825225,5.47568 0.217945,-1.19184 -1.511903,2.26786 -0.112691,0.22538 0.112689,0.53057 0,0.75595 -0.657095,1.31419 -1.722171,2.41555 -2.267858,3.77976 -0.47719,1.19298 -0.402971,2.54433 -0.755953,3.77976 -0.309585,1.08355 -1.155545,1.95474 -1.511904,3.02382 -0.158599,0.47579 0,3.09837 0,3.77976 0,0.25198 -0.17818,0.57777 0,0.75595 0.178179,0.17818 0.577772,-0.17818 0.755952,0 0.356359,0.35636 -0.35636,1.15555 0,1.5119 0.178179,0.17818 0.577773,-0.17818 0.755952,0 0.35636,0.35636 -0.225381,1.06115 0,1.51191 0.159369,0.31874 0.643262,0.41788 0.755953,0.75595 0.135468,0.4064 0,2.38378 0,3.02381 0,1.76389 0,3.52778 0,5.29167 0,0.50397 0.159368,1.0338 0,1.5119 -0.112691,0.33808 -0.596584,0.43722 -0.755953,0.75596 -0.11269,0.22538 0.112691,0.53056 0,0.75595 -0.159368,0.31874 -0.596583,0.43721 -0.755952,0.75595 -0.225382,0.45076 0.159369,1.0338 0,1.5119 -0.17818,0.53454 -0.577773,0.97737 -0.755952,1.51191 -0.07969,0.23905 0.11269,0.53057 0,0.75595 -0.159369,0.31874 -0.596584,0.43722 -0.755953,0.75595 -0.136689,0.27338 0,3.25397 0,3.77976 0,0.52201 -0.114918,2.79398 0,3.02382 0.159369,0.31873 0.596584,0.43721 0.755953,0.75595 0.11269,0.22538 -0.112691,0.53057 0,0.75595 1.729848,3.4597 -0.313322,-3.20782 1.511904,2.26786 0.07968,0.23905 -0.11269,0.53057 0,0.75595 0.159369,0.31874 0.596584,0.43721 0.755953,0.75595 0.11269,0.22538 0,0.50397 0,0.75595 0,0.50397 0,1.00794 0,1.51191 0,1.5119 0,3.02381 0,4.53571 0,4.7877 0,9.5754 0,14.3631 0,0.75595 0,1.5119 0,2.26785 0,0.25199 0.178179,0.57778 0,0.75596 -0.17818,0.17818 -0.643262,-0.22538 -0.755953,0 -0.225381,0.45076 0,1.00793 0,1.5119 0,0.25199 0.17818,0.57777 0,0.75596 -0.178179,0.17817 -0.676268,-0.23906 -0.755952,0 -0.265034,0.7951 0.249489,3.03129 0,3.77976 0.376391,1.3392 -1.174481,1.42429 -1.511905,2.26785 -0.385859,0.96465 -0.552196,2.00503 -0.755952,3.02381 -0.165958,0.82979 0,2.86701 0,3.77976 0,0.25199 0.07968,0.5169 0,0.75596 -0.17818,0.53454 -0.619295,0.96527 -0.755953,1.5119 -0.183345,0.73338 0,1.51191 0,2.26786 0,1.76389 0,3.52778 0,5.29167 0,0.17963 -0.08471,2.85437 0,3.0238 0.159369,0.31874 0.643262,0.41788 0.755953,0.75596 0.202889,0.60866 -0.217016,4.10168 0,4.53571 0.159368,0.31874 0.596583,0.43722 0.755952,0.75596 0.171735,0.34346 -0.04714,4.34715 0,4.53571 0.08643,0.34572 0.643262,0.41788 0.755953,0.75595 0.135468,0.4064 0,2.38378 0,3.02381 0,2.51984 0,5.03968 0,7.55952 0,0.75596 0,1.51191 0,2.26786 0,0.25198 -0.112691,0.53057 0,0.75595 0.159368,0.31874 0.596583,0.43722 0.755952,0.75596 0.112691,0.22538 -0.06112,0.51149 0,0.75595 0.193263,0.77305 0.562689,1.4948 0.755952,2.26785 0.06111,0.24447 -0.07968,0.51691 0,0.75596 0.17818,0.53454 0.64545,0.95939 0.755953,1.5119 0.242292,1.21146 -0.242293,2.5683 0,3.77976 0.156274,0.78137 0.562689,1.49481 0.755952,2.26786 0.06112,0.24446 -0.06112,0.51149 0,0.75595 0.193262,0.77306 0.562689,1.49481 0.755952,2.26786 0.122232,0.48892 -0.22538,1.06114 0,1.51191 0.159369,0.31873 0.596585,0.43721 0.755954,0.75595 0.11503,0.23006 0,1.9274 0,2.26785 0,2.01588 0,4.03176 0,6.04762 0,0.34044 -0.115033,2.03779 0,2.26785 0.159366,0.31874 0.64326,0.41788 0.755951,0.75597 0.15937,0.4781 0,1.00793 0,1.51191 0,1.25992 0,2.51983 0,3.77975 0,5.29167 0,10.58334 0,15.875 0,1.7639 0,3.52777 0,5.29167 0,0.50395 0,1.00793 0,1.51191 0,0.25199 -0.07968,0.51689 0,0.75594 0.178179,0.53454 0.466059,1.02875 0.755952,1.51191 0.467442,0.77906 1.044464,1.48878 1.511906,2.26785 0.289893,0.48315 0.443405,1.04309 0.755952,1.51191 0.197672,0.29651 0.542136,0.47088 0.755951,0.75596 0.545127,0.72681 0.944343,1.5584 1.511906,2.26785 0.44523,0.55653 1.084273,0.94173 1.511903,1.51191 0.676146,0.90152 0.715063,2.22695 1.511906,3.02379 0.398423,0.39844 1.113483,0.35753 1.511906,0.75597 5.03968,5.03968 -3.779763,-1.7639 2.267855,2.26785 0.296511,0.19767 0.437216,0.59658 0.755954,0.75597 0.169431,0.0847 2.84417,0 3.023809,0 0.251984,0 0.577774,0.17817 0.755952,0 0.398423,-0.39844 0.357531,-1.1135 0.755952,-1.51191 1.909463,-1.90947 0.871452,-0.29049 2.267857,-0.75597 0.53454,-0.17817 0.977366,-0.57777 1.511906,-0.75594 0.239054,-0.0797 0.530571,0.11269 0.755952,0 0.318738,-0.15938 0.437216,-0.59658 0.755951,-0.75597 0.225383,-0.11268 0.503971,0 0.755954,0 0.503968,-0.25196 1.043083,-0.44339 1.511904,-0.75594 0.29651,-0.19767 0.477684,-0.53335 0.755954,-0.75594 0.983832,-0.78708 2.039974,-1.48079 3.023809,-2.26788 0.27827,-0.22262 0.41788,-0.64325 0.755952,-0.75594 0.478107,-0.15938 1.022985,0.12224 1.511905,0 0.54663,-0.13665 1.007936,-0.50397 1.511904,-0.75596 0.503967,-0.25197 1.043082,-0.44339 1.511906,-0.75595 1.729848,-1.15323 -0.472692,-0.59838 2.267857,-1.5119 0.531553,-0.1772 3.572547,0.20722 3.779761,0 0.178181,-0.17817 0,-0.50396 0,-0.75594 0,-1.00796 0,-2.01589 0,-3.02382 0,-8.56747 0,-17.13492 0,-25.70239 0,-3.02379 0,-6.04761 0,-9.07143 0,-0.89702 -0.146733,-5.31394 0,-6.04761 0.110503,-0.55251 0.577773,-0.97737 0.755951,-1.5119 0.07968,-0.23906 -0.112688,-0.53058 0,-0.75596 0.15937,-0.31873 0.643263,-0.41788 0.755955,-0.75595 0.159366,-0.47811 -0.159369,-1.0338 0,-1.5119 0.112688,-0.33808 0.596582,-0.43722 0.755951,-0.75596 0.35636,-0.71272 0.399593,-1.55513 0.755952,-2.26785 0.159369,-0.31874 0.596585,-0.43722 0.755952,-0.75596 0.112691,-0.22538 0,-0.50396 0,-0.75595 0,-0.75595 0.183345,-1.53447 0,-2.26786 -0.136658,-0.54663 -0.619295,-0.96527 -0.755952,-1.5119 -0.12223,-0.48892 0,-1.00794 0,-1.51191 0,-1.76388 0,-3.52777 0,-5.29166 0,-0.50397 0,-1.00794 0,-1.51191 0,-0.50397 0.159369,-1.03379 0,-1.5119 -0.112691,-0.33807 -0.64326,-0.41788 -0.755952,-0.75595 -0.159369,-0.47811 0.159369,-1.0338 0,-1.51191 -0.225382,-0.67614 -1.286523,-0.83576 -1.511906,-1.5119 -0.128987,-0.38697 0,-3.99528 0,-4.53572 0,-0.25198 0,-0.50396 0,-0.75595 0,-0.25198 0.178181,-0.57777 0,-0.75595 -0.178178,-0.17818 -0.616174,0.20966 -0.755951,0 -0.44201,-0.66302 -0.460013,-1.52801 -0.755952,-2.26786 -0.209261,-0.52315 -0.577773,-0.97737 -0.755954,-1.5119 -0.07968,-0.23906 0.112691,-0.53057 0,-0.75595 -0.159367,-0.31874 -0.64326,-0.41789 -0.755952,-0.75596 -0.159369,-0.4781 0.12223,-1.02298 0,-1.5119 -0.136657,-0.54663 -0.577773,-0.97737 -0.755951,-1.51191 -0.07969,-0.23905 0,-0.50397 0,-0.75595 0,-0.50397 0,-1.00794 0,-1.51191 0,-1.5119 0,-3.0238 0,-4.53571 0,-7.81151 0,-15.62301 0,-23.43452 0,-2.51984 0,-5.03968 0,-7.55953 0,-0.3953 -0.09939,-2.82503 0,-3.02381 0.159369,-0.31873 0.596582,-0.43721 0.755951,-0.75595 0.225383,-0.45076 -0.356359,-1.15554 0,-1.5119 0.178181,-0.17818 0.577774,0.17818 0.755952,0 0.178181,-0.17818 0,-0.50397 0,-0.75595 0.251986,0 0.577773,0.17817 0.755954,0 0.35636,-0.35637 -0.225382,-1.06115 0,-1.51191 0.159369,-0.31874 0.596583,-0.43722 0.755952,-0.75595 0.114919,-0.22984 0,-2.50181 0,-3.02381 0,-2.01587 0,-4.03175 0,-6.04762 0,-1.25992 -0.305575,-2.55746 0,-3.77976 0.220353,-0.88142 1.17448,-1.4243 1.511906,-2.26786 0.187169,-0.46792 -0.122233,-1.02298 0,-1.51191 0.136657,-0.54662 0.57777,-0.97736 0.755951,-1.5119 0.171855,-0.51557 -0.08228,-2.53012 0,-3.02381 0.170805,-1.02482 0.552196,-2.00503 0.755952,-3.02381 0.131413,-0.65706 -0.204504,-3.37075 0,-3.77976 0.159369,-0.31874 0.596585,-0.43721 0.755952,-0.75595 0.112103,-0.22421 0,-3.80454 0,-4.53572 0,-2.51984 0,-5.03968 0,-7.55952 0,-0.522 0.114919,-2.79397 0,-3.02381 -0.159367,-0.31874 -0.643261,-0.41788 -0.755952,-0.75595 -0.239054,-0.71716 0,-1.51191 0,-2.26786 0,-1.25992 0,-2.51984 0,-3.77976 0,-4.53572 0,-9.07143 0,-13.60715 0,-1.5119 0,-3.0238 0,-4.53571 0,-0.75595 0.124277,-1.52219 0,-2.26786 -0.21123,-1.26739 -0.596583,-2.504808 -0.755952,-3.779758 -0.09377,-0.750115 0.124278,-1.522191 0,-2.267855 -0.131,-0.786003 -0.624953,-1.481857 -0.755951,-2.267858 -0.248558,-1.491334 0.213815,-3.039006 0,-4.535715 -0.878184,-6.147279 -0.755955,-0.706908 -0.755955,-4.535715 0,-3.275793 0,-6.551586 0,-9.827379 0,-0.681389 -0.158599,-3.303968 0,-3.779763 0.178181,-0.534538 0.577774,-0.977366 0.755955,-1.511903 0.07968,-0.239054 0,-0.503971 0,-0.755954 0,-0.503968 0,-1.007936 0,-1.511904 0,-1.992159 0,-1.031652 0,-3.023809 0,-3.023812 0,-6.047621 0,-9.07143 0,-2.519841 0,-5.039683 0,-7.559524 0,-0.786133 0.148658,-3.941069 0,-4.535712 -0.13666,-0.546632 -0.619297,-0.965277 -0.755955,-1.511906 -0.183345,-0.733383 0,-1.511906 0,-2.267858 0,-1.511903 0,-3.023809 0,-4.535715 0,-3.77976 0,-7.559521 0,-11.339284 0,-1.772843 -0.178178,0.356359 0.755955,-1.511905 0.112688,-0.225381 -0.112692,-0.530571 0,-0.755952 0.159366,-0.318738 0.64326,-0.417881 0.755951,-0.755953 0,-3.44131 -0.356359,-0.04323 0.755952,-2.267857 0.225383,-0.450763 -0.22538,-1.061142 0,-1.511905 0.159369,-0.318737 0.596585,-0.437215 0.755952,-0.755952 0.221448,-0.442893 -0.139264,-3.222702 0,-3.779762 0.136659,-0.54663 0.577773,-0.977366 0.755954,-1.511905 0.136374,-0.409126 0,-2.766276 0,-3.0238089 0,-2.2678573 0,-4.5357142 0,-6.80357145 0,-0.50396824 0,-1.00793649 0,-1.51190474 0,-0.50396821 -0.122232,-1.02298371 0,-1.51190471 0.136657,-0.5466304 0.57777,-0.9773657 0.755951,-1.5119047 0.15937,-0.4781064 -0.225382,-1.0611419 0,-1.5119049 0.934133,-1.8682641 0.755952,0.2609382 0.755952,-1.5119048 0,-0.2519839 0.247092,-0.706534 0,-0.7559521 -1.482545,-0.296509 -3.023809,0 -4.535712,0 -0.984364,0 -3.778126,-0.1515179 -4.535715,0 -0.552511,0.1105021 -0.956117,0.663321 -1.511906,0.7559521 -1.491332,0.2485557 -3.023809,0 -4.535713,0 -1.259922,0 -2.519841,0 -3.779763,0 -0.503968,0 -1.022982,0.1222304 -1.511903,0 -0.546632,-0.1366575 -0.965277,-0.6192946 -1.511906,-0.7559521 -0.488921,-0.1222304 -1.022985,0.1222301 -1.511906,0 -0.546629,-0.1366576 -0.977365,-0.5777728 -1.511903,-0.7559524 -2.250342,-0.7501144 1.551067,1.7899972 -2.267858,-0.7559524 -0.889526,-0.5930178 -1.378331,-1.6748389 -2.267857,-2.2678569 -0.209664,-0.139776 -0.530572,0.11269 -0.755952,0 -0.637476,-0.318738 -0.874429,-1.193167 -1.511906,-1.511905 -0.22538,-0.112691 -0.530569,0.112691 -0.755951,0 -0.196813,-0.09841 -0.920957,-1.3469 -1.511906,-0.755952 -0.178178,0.178179 0.112691,0.53057 0,0.755952 -0.159367,0.318738 -0.64326,0.41788 -0.755952,0.755952 -0.239053,0.71716 0.28388,1.567231 0,2.2678574 -0.520372,1.2843058 -1.213718,2.4915466 -1.820576,3.73732 z"
         style="fill:#552200;stroke:#000000;stroke-width:0.26458332px;stroke-linecap:butt;stroke-linejoin:miter;stroke-opacity:1" />
      <path
         inkscape:connector-curvature="0"
         d="m 63.045686,302.11424 c 0.17073,-3.31113 0.205076,-6.62824 0.28834,-9.94254 0.151948,-6.3482 0.165219,-12.69537 0.636167,-19.03079 0.446902,-4.69104 0.681543,-9.39621 1.024353,-14.0953 0.145018,-3.17266 0.464693,-6.35068 0.345927,-9.53044 -0.04324,-1.15766 -0.292132,-3.77923 -0.384959,-4.8293 -0.884872,-8.71467 -1.870874,-17.4192 -2.88536,-26.11971 -0.498893,-5.4398 -1.626034,-10.8899 -1.52499,-16.37685 0.02694,-1.46285 0.167844,-2.92138 0.251767,-4.38206 0.515636,-7.49607 1.312672,-14.96849 1.91683,-22.45752 0.379507,-3.52381 0.472538,-7.06662 0.541231,-10.60726 0.145362,-7.52925 0.433023,-15.0506 0.477999,-22.58303 0.01797,-8.43461 -0.167497,-16.86685 -0.329292,-25.2992 0.137422,-7.42737 0.136707,-14.85495 0.05595,-22.282775 -0.05691,-5.576237 -0.149892,-11.151322 -0.11225,-16.727966 0.594357,-7.025002 1.325031,-14.035289 1.762506,-21.072972 0.249582,-3.908695 0.348776,-7.822787 0.425283,-11.737869 0.03936,-5.187212 0.528437,-10.353749 0.91213,-15.522633 0.120587,-3.292325 0.582144,-6.5512 0.918906,-9.824012 0.313555,-2.303868 0.623758,-4.610273 1.074317,-6.891959 0.208793,-1.20188 0.570164,-2.39423 0.406014,-3.61373 C 68.306002,6.1807494 68.100273,3.1260647 67.888381,0.08320468 67.761958,-2.336851 67.682599,-4.7595014 67.635987,-7.1823902 c -0.0076,-0.248421 -0.01516,-0.4968422 -0.02273,-0.7452635 0,0 9.897224,-5.0434363 9.897224,-5.0434363 v 0 c -0.0074,0.254914 -0.01471,0.509827 -0.02207,0.76474 -0.03112,2.4344693 -0.06152,4.8697403 0.05005,7.3030071 0.131635,2.9478798 0.280053,5.9363777 1.088747,8.7903861 0.111098,0.3048611 0.35774,0.8415234 0.347432,1.2163962 -0.02662,0.9679582 -0.577469,1.9229337 -0.608076,2.8946744 -0.50251,2.2663452 -0.829717,4.5600372 -1.242944,6.8450092 -0.327395,3.321177 -0.909923,6.609267 -1.167791,9.938626 -0.569971,5.113932 -1.031724,10.250732 -0.87399,15.402977 0.0096,3.971893 -0.03267,7.950231 -0.548868,11.895375 -0.802145,6.974409 -1.740831,13.963116 -1.808967,20.991785 0.03812,5.614792 -0.05663,11.228057 -0.112447,16.842457 -0.07974,7.408571 -0.08359,14.816947 0.05701,22.225027 -0.158128,8.54119 -0.338269,17.08233 -0.312264,25.62567 0.05266,7.37426 0.373473,14.7362 0.479044,22.10744 0.0016,3.58706 0.004,7.19379 -0.544298,10.74822 -1.27604,7.49144 -2.338059,15.04657 -2.54432,22.65238 0.09124,6.90326 0.488405,13.79727 1.161042,20.66949 0.863533,8.65386 1.786538,17.29824 3.368886,25.85765 0.298172,2.07534 0.46731,2.84605 0.552167,4.87269 0.134898,3.2219 -0.270552,6.43905 -0.415488,9.65284 -0.288084,4.70249 -0.371856,9.42786 -0.970897,14.10277 -0.742148,6.29105 -1.071372,12.61777 -0.705035,18.95194 0.08293,3.21631 0.115176,6.43576 0.288343,9.64867 0,0 -9.980057,5.08511 -9.980057,5.08511 z"
         id="path4489"
         style="fill:#000000;fill-opacity:1;stroke-width:0.26458332" />
    </g>
    <path
       style="fill:#004200;stroke:#000000;stroke-width:0.26458332px;stroke-linecap:butt;stroke-linejoin:miter;stroke-opacity:1;fill-opacity:1"
       d="m 90.760815,-3.1415415 c -12.106738,-3.5637938 0.108003,0.7812902 -5.834865,-2.7844306 -4.336194,-1.4453981 -0.459188,0.2225728 -3.779762,-2.2678572 -0.450763,-0.3380721 -1.113483,-0.3575304 -1.511905,-0.7559524 -2.19865,-2.1986513 -2.683293,-5.5743063 -3.779761,-8.3154763 -0.209262,-0.523153 -0.619295,-0.965274 -0.755953,-1.511904 -0.12223,-0.488921 0.159369,-1.033799 0,-1.511905 -0.11269,-0.338072 -0.643261,-0.41788 -0.755952,-0.755953 -0.159369,-0.478106 0.225381,-1.061141 0,-1.511904 -0.112691,-0.225382 -0.694837,0.24446 -0.755952,0 -0.244461,-0.977842 0.197672,-2.035447 0,-3.02381 -0.393262,-1.966308 -0.782047,-0.02609 -1.511905,-0.755952 -0.17818,-0.17818 0.178179,-0.577773 0,-0.755952 -0.17818,-0.17818 -0.530571,0.11269 -0.755953,0 -0.318737,-0.159369 -0.437215,-0.596584 -0.755952,-0.755953 -0.450763,-0.225381 -1.155545,0.356359 -1.511905,0 -0.17818,-0.17818 0.17818,-0.577773 0,-0.755952 -0.17818,-0.17818 -0.577772,0.178179 -0.755952,0 -0.17818,-0.17818 0.112691,-0.530571 0,-0.755953 -0.159369,-0.318737 -0.596584,-0.437215 -0.755952,-0.755952 -0.112691,-0.225381 0.178179,-0.577773 0,-0.755953 -0.17818,-0.178179 -0.577773,0.17818 -0.755953,0 -0.356359,-0.356359 0.225382,-1.061141 0,-1.511904 -0.318737,-0.637475 -1.193167,-0.87443 -1.511905,-1.511905 -0.11269,-0.225381 0.17818,-0.577773 0,-0.755952 -0.178179,-0.17818 -0.643261,0.225381 -0.755952,0 -0.225381,-0.450763 0.12223,-1.022984 0,-1.511905 -0.548109,-2.192438 -0.589776,-0.884663 -1.511905,-2.267857 -0.625095,-0.937644 -0.886809,-2.086166 -1.511904,-3.02381 -0.197673,-0.296508 -0.503969,-0.503968 -0.755953,-0.755952 -1.40033,-1.40033 -1.475162,-1.806937 -3.779762,-2.267857 -5.735517,-1.147103 1.579016,1.167484 -2.267857,-0.755952 -0.225381,-0.112691 -0.577773,0.178179 -0.755952,0 -0.398422,-0.398422 -0.443405,-1.043083 -0.755953,-1.511904 -0.395345,-0.593019 -1.116559,-0.918888 -1.511904,-1.511906 -0.312548,-0.468821 -0.357531,-1.113483 -0.755953,-1.511906 -0.178179,-0.178178 -0.577772,0.178181 -0.755952,0 -0.356359,-0.356359 0.356359,-1.155544 0,-1.511903 -0.178181,-0.178181 -0.577773,0.178178 -0.755952,0 -0.178181,-0.178181 0.112689,-0.530572 0,-0.755952 -0.453572,-0.907145 -1.814287,-1.360715 -2.267857,-2.267857 -0.112691,-0.225383 0,-0.503968 0,-0.755955 0,-0.251983 0,-0.503967 0,-0.755951 0,-1.25992 0,-2.519842 0,-3.779761 0,-3.023809 0,-6.047621 0,-9.07143 0,-1.817047 0.07968,0.318738 -0.755952,-3.023809 -0.122232,-0.488921 0,-1.007936 0,-1.511903 0,-0.503971 0,-1.007938 0,-1.511906 0,-0.251984 0,-1.007936 0,-0.755952 0,0.755952 0,1.511903 0,2.267858 0,0.251984 0.178179,0.57777 0,0.755951 -0.178181,0.178179 -0.511492,0.06112 -0.755954,0 -1.885778,-0.471445 -3.270165,-0.98543 -3.779761,-3.023809 -0.122229,-0.488921 0,-1.007938 0,-1.511906 0,-1.511903 0,-3.023809 0,-4.535715 0,-0.221519 0.05819,-2.190271 0,-2.267854 -0.641448,-0.855263 -1.511906,-1.511906 -2.267857,-2.267858 -0.251984,-0.251984 -0.459444,-0.558281 -0.755952,-0.755954 -0.468823,-0.312547 -1.043083,-0.443402 -1.511906,-0.755952 -0.296508,-0.197673 -0.41788,-0.64326 -0.755951,-0.755951 -0.478108,-0.15937 -1.043983,0.187168 -1.511906,0 -1.424646,-0.56986 -2.072455,-1.316504 -3.023809,-2.267858 -0.251984,-0.251984 -0.437214,-0.596582 -0.755952,-0.755952 -0.225383,-0.112691 -0.577773,0.178179 -0.755952,0 -0.178181,-0.178181 0.112689,-0.530571 0,-0.755954 -0.159369,-0.318735 -0.596585,-0.437213 -0.755954,-0.755951 -0.120449,-0.240901 0,-3.10415 0,-3.779761 0,-2.519842 0,-5.039684 0,-7.559524 0,-0.5258 0.136689,-3.50639 0,-3.77976 -0.159369,-0.31874 -0.596582,-0.43722 -0.755951,-0.75596 -0.142418,-0.28483 -0.03586,-4.42814 0,-4.53571 0.178181,-0.53454 0.619294,-0.96527 0.755951,-1.5119 0.122232,-0.48892 -0.159369,-1.0338 0,-1.51191 0.112692,-0.33807 0.596585,-0.43721 0.755954,-0.75595 0.112689,-0.22538 0,-0.50397 0,-0.75595 0,-0.25199 0,-0.50397 0,-0.75596 0,-1.25992 0,-2.51984 0,-3.77976 0,-0.50397 -0.159369,-1.0338 0,-1.5119 0.112689,-0.33807 0.596583,-0.43722 0.755952,-0.75596 0.237567,-0.47513 -0.237567,-2.54867 0,-3.0238 0.159369,-0.31874 0.503968,-0.50397 0.755952,-0.75596 0,-0.50396 -0.159369,-1.03379 0,-1.5119 0.112691,-0.33807 0.503967,-0.50397 0.755951,-0.75595 0.251987,-0.25199 0.437216,-0.59659 0.755955,-0.75595 0.22538,-0.1127 0.516898,0.0797 0.755951,0 0.534541,-0.17819 0.977366,-0.57778 1.511906,-0.75596 0.478105,-0.15937 1.061141,0.22538 1.511903,0 1.391719,-0.69586 0.120185,-1.57199 1.511906,-2.26786 0.22538,-0.11269 0.503968,0 0.755952,0 0.503968,-0.50396 0.918887,-1.11655 1.511906,-1.5119 0.209661,-0.13978 0.57777,0.17818 0.755951,0 0.178179,-0.17818 -0.112691,-0.53057 0,-0.75595 0.159369,-0.31874 0.503968,-0.50397 0.755952,-0.75596 0.503968,-0.50396 1.007938,-1.00793 1.511906,-1.5119 0.251984,-0.25198 0.596582,-0.43721 0.755951,-0.75595 0.112692,-0.22538 -0.07968,-0.5169 0,-0.75595 1.825226,-5.47568 -0.217942,1.19183 1.511906,-2.26786 0.22538,-0.45076 -0.122232,-1.02298 0,-1.51191 1.573046,-6.29218 -0.05219,0.91252 1.511904,-3.77976 0.07968,-0.23905 -0.112692,-0.53057 0,-0.75595 0.159369,-0.31874 0.558281,-0.45944 0.755951,-0.75595 0.31255,-0.46883 0.577773,-0.97737 0.755954,-1.51191 0.07968,-0.23905 -0.178181,-0.57777 0,-0.75595 0.35636,-0.35636 1.155545,0.35636 1.511904,0 0.17818,-0.17818 -0.11269,-0.53057 0,-0.75595 0.76445,-1.5289 1.754319,-0.24242 2.267857,-0.75596 0.17818,-0.17817 -0.178179,-0.57777 0,-0.75595 0.17818,-0.17818 0.503969,0 0.755953,0 0.251984,0 0.643261,-0.22538 0.755952,0 1.42791,2.85582 -0.713955,1.46991 0,0.75595 0.398422,-0.39842 1.113483,-0.35752 1.511905,-0.75595 0.398422,-0.39842 0.482315,-1.01935 0.755952,-1.5119 0.986614,-1.7759 2.050992,-3.50817 3.02381,-5.29167 0.539622,-0.98931 0.952802,-2.04538 1.511905,-3.02381 0.450763,-0.78883 1.044463,-1.48879 1.511904,-2.26786 0.289895,-0.48315 0.357531,-1.11348 0.755953,-1.5119 0.178179,-0.17818 0.530571,0.11269 0.755952,0 3.146093,-1.57305 -0.80814,0.0522 0.755952,-1.51191 0.17818,-0.17817 0.530571,0.1127 0.755953,0 0.637475,-0.31873 0.874429,-1.19316 1.511905,-1.5119 0.225381,-0.11269 0.577772,0.17818 0.755952,0 1.564092,-1.56409 -2.39014,0.0611 0.755952,-1.5119 0.416002,-0.208 3.944716,0.197 4.535715,0 0.338072,-0.1127 0.437214,-0.59659 0.755952,-0.75596 0.225381,-0.11269 0.530571,0.1127 0.755952,0 0.318738,-0.15937 0.437215,-0.59658 0.755953,-0.75595 0.225381,-0.11269 0.530571,0.11269 0.755952,0 3.146093,-1.57305 -0.80814,0.0522 0.755952,-1.5119 0.17818,-0.17818 0.577773,0.17818 0.755953,0 0.178179,-0.17818 -0.17818,-0.57778 0,-0.75596 1.564092,-1.56409 -0.06114,2.39014 1.511904,-0.75595 0.112691,-0.22538 -0.178179,-0.57777 0,-0.75595 0.35636,-0.35636 1.155546,0.35636 1.511905,0 0.17818,-0.17818 -0.178179,-0.57777 0,-0.75595 0.17818,-0.17818 0.530571,0.11269 0.755953,0 0.621864,-0.31094 2.464718,-2.65109 3.023809,-3.02381 0.209663,-0.13978 0.577773,0.17818 0.755952,0 0.35636,-0.35636 -0.356359,-1.15555 0,-1.51191 0.17818,-0.17818 0.577773,0.17818 0.755953,0 0.178179,-0.17818 -0.17818,-0.57777 0,-0.75595 0.178179,-0.17818 0.503968,0 0.755952,0 0.503968,-0.75595 1.105593,-1.45523 1.511905,-2.26786 0.930937,-1.86187 -2.194329,0.68243 0.755952,-2.26785 0.398422,-0.39842 1.113483,-0.35753 1.511905,-0.75596 0.398422,-0.39842 0.443405,-1.04308 0.755952,-1.5119 0.395346,-0.59302 1.193168,-0.87443 1.511905,-1.5119 0.521364,-1.04273 -0.9155,-0.67618 0.755953,-1.51191 0.712718,-0.35636 1.555138,-0.39959 2.267857,-0.75595 0.318737,-0.15937 0.437215,-0.59659 0.755952,-0.75595 0.450763,-0.22539 1.033798,0.15936 1.511905,0 0.534539,-0.17819 0.977365,-0.57778 1.511907,-0.75596 0.48979,-0.16326 3.16086,0 3.77976,0 0.25198,0 0.53057,0.11269 0.75595,0 0.31874,-0.15937 0.43722,-0.59658 0.75595,-0.75595 0.40757,-0.20378 3.49684,0.18862 3.77977,0 0.59301,-0.39535 1.00793,-1.00794 1.5119,-1.51191 0.25198,-0.25198 0.59658,-0.43721 0.75595,-0.75595 0.11269,-0.22538 -0.17818,-0.57777 0,-0.75595 0.20685,-0.20684 2.61372,0.20505 3.02381,0 0.31874,-0.15937 0.43722,-0.59658 0.75596,-0.75595 0.22538,-0.11269 0.53057,0.11269 0.75595,0 0.31874,-0.15937 0.43721,-0.59659 0.75595,-0.75595 0.60476,-0.30238 1.6631,0.30238 2.26786,0 0.31874,-0.15937 0.43721,-0.59659 0.75595,-0.75596 0.71272,-0.35636 1.528,-0.46001 2.26786,-0.75595 0.52315,-0.20926 0.97736,-0.57777 1.5119,-0.75595 0.47811,-0.15937 1.00794,0 1.51191,0 1.00793,0 2.01587,0 3.0238,0 0.50397,0 1.02299,-0.12223 1.51191,0 0.54663,0.13666 0.97737,0.57777 1.51191,0.75595 0.23905,0.0797 0.53056,-0.11269 0.75595,0 0.31874,0.15937 0.43721,0.59658 0.75595,0.75595 0.45076,0.22539 1.0338,-0.15937 1.5119,0 0.53454,0.17818 0.97737,0.57778 1.51191,0.75596 0.51997,0.17332 1.82183,-0.22302 2.26786,0 0.31873,0.15936 0.43721,0.59658 0.75595,0.75595 0.60476,0.30238 1.66309,-0.30238 2.26785,0 0.63748,0.31873 0.87443,1.19316 1.51191,1.5119 0.22538,0.11269 0.57777,-0.17818 0.75595,0 0.17818,0.17818 -0.17818,0.57778 0,0.75595 0.17818,0.17819 0.50397,0 0.75595,0 0.5258,0 3.50639,-0.13668 3.77977,0 0.31874,0.15937 0.43721,0.59659 0.75595,0.75596 0.45076,0.22538 1.15555,-0.35636 1.5119,0 0.17818,0.17818 -0.17818,0.57777 0,0.75595 0.17818,0.17818 0.50397,0 0.75596,0 1.25992,0 2.51984,0 3.77976,0 0.25198,0 0.50397,0 0.75595,0 0.25199,0 0.57777,-0.17818 0.75595,0 0.17818,0.17818 -0.22538,0.64326 0,0.75595 0.67615,0.33808 1.59172,-0.33807 2.26786,0 0.31874,0.15937 0.43721,0.59659 0.75595,0.75596 0.19546,0.0977 3.9999,0 4.53572,0 0.25198,0 0.53057,-0.1127 0.75595,0 0.63748,0.31873 0.87443,1.19316 1.5119,1.5119 0.22538,0.11269 0.57778,-0.17818 0.75596,0 0.17818,0.17818 -0.17818,0.57777 0,0.75595 0.37797,0.37798 1.88988,-0.37798 2.26785,0 0.17818,0.17818 -0.11269,0.53057 0,0.75596 0.15937,0.31873 0.50397,0.50396 0.75596,0.75595 0.25198,0.25198 0.45944,0.55828 0.75595,0.75595 0.46882,0.31255 1.11348,0.35753 1.5119,0.75595 0.17818,0.17818 -0.17818,0.57777 0,0.75595 0.17818,0.17818 0.57778,-0.17818 0.75595,0 0.17819,0.17818 -0.11268,0.53058 0,0.75596 0.12217,0.24432 2.67963,2.79435 3.02381,3.0238 0.46883,0.31255 0.97737,0.57778 1.51191,0.75596 0.23905,0.0797 0.57777,-0.17818 0.75595,0 0.17818,0.17818 -0.17818,0.57777 0,0.75595 0.17818,0.17818 0.5169,-0.0797 0.75596,0 0.53453,0.17818 0.97736,0.57777 1.5119,0.75595 0.23905,0.0797 0.53057,-0.11269 0.75595,0 3.14609,1.57305 -0.80814,-0.0522 0.75595,1.51191 0.17818,0.17818 0.57778,-0.17818 0.75596,0 0.17818,0.17818 -0.17818,0.57777 0,0.75595 0.17818,0.17818 0.53057,-0.11269 0.75595,0 0.31874,0.15937 0.43721,0.59658 0.75595,0.75595 0.22538,0.11269 0.53057,-0.11269 0.75595,0 0.63748,0.31874 0.87443,1.19317 1.51191,1.51191 0.22538,0.11269 0.53057,-0.11269 0.75595,0 0.20071,0.10035 2.1675,2.06714 2.26786,2.26785 0.30238,0.60477 -0.30238,1.6631 0,2.26786 0.11269,0.22538 0.57777,-0.17818 0.75595,0 0.17818,0.17818 -0.11269,0.53057 0,0.75595 0.31874,0.63748 1.11656,0.91889 1.5119,1.51191 2.54595,3.81892 0.006,0.0175 0.75596,2.26785 1.82522,5.47568 -0.21795,-1.19183 1.5119,2.26786 0.35636,0.71272 0.56269,1.49481 0.75596,2.26786 0.0611,0.24446 -0.1127,0.53057 0,0.75595 0.15936,0.31874 0.59658,0.43722 0.75595,0.75596 0.24554,0.49108 -0.23976,3.30024 0,3.77976 0.15937,0.31873 0.59658,0.43721 0.75595,0.75595 0.11269,0.22538 -0.17818,0.57777 0,0.75595 0.17818,0.17818 0.57777,-0.17818 0.75595,0 0.17818,0.17818 -0.13977,0.54629 0,0.75595 0.43009,1.02311 1.67484,1.37833 2.26786,2.26786 0.31255,0.46882 0.50397,1.00794 0.75595,1.5119 0.50397,1.00794 1.09338,1.97751 1.5119,3.02381 0.0936,0.23397 0,0.50397 0,0.75596 0,0.75595 0,1.5119 0,2.26786 0,0.50396 -0.12222,1.02298 0,1.5119 0.38653,1.5461 1.12538,2.98961 1.51191,4.53571 0.0776,0.31037 -0.0916,1.42027 0,1.51191 0.17818,0.17818 0.57777,-0.17818 0.75595,0 0.17818,0.17818 0,0.50397 0,0.75595 0,0.53582 -0.0977,4.34026 0,4.53571 1.72985,3.4597 -0.31332,-3.20782 1.51191,2.26786 0.0797,0.23905 -0.11269,0.53057 0,0.75596 0.10035,0.20071 2.06714,2.16749 2.26785,2.26785 0.22539,0.11269 0.57778,-0.17818 0.75596,0 0.17818,0.17818 -0.0611,0.51149 0,0.75595 0.19326,0.77306 0.56269,1.49481 0.75595,2.26786 0.12223,0.48892 -0.22538,1.06114 0,1.5119 0.76007,1.52014 1.58853,0.30307 2.26786,0.75596 0.59302,0.39534 1.11656,0.91888 1.5119,1.5119 0.27955,0.41933 -0.22538,1.06115 0,1.51191 1.57305,3.14609 -0.0522,-0.80814 1.51191,0.75595 0.17818,0.17818 -0.17819,0.57777 0,0.75595 0.17818,0.17818 0.57777,-0.17818 0.75595,0 0.17818,0.17818 -0.11269,0.53057 0,0.75595 2.50718,2.50718 -0.35636,-0.71272 0.75595,1.51191 0.31874,0.63748 1.19317,0.87443 1.5119,1.5119 0.1127,0.22538 -0.17817,0.57778 0,0.75596 0.17819,0.17817 0.57778,-0.17818 0.75596,0 0.35636,0.35636 -0.22538,1.06114 0,1.5119 0.31873,0.63748 1.19316,0.87443 1.5119,1.51191 0.11269,0.22538 -0.11269,0.53057 0,0.75595 1.72985,3.45969 -0.31332,-3.20782 1.51191,2.26785 0.26776,0.80329 -0.26777,2.22053 0,3.02381 0.11269,0.33808 0.59658,0.43722 0.75595,0.75596 0.11269,0.22538 0,0.50397 0,0.75595 0,0.50397 -0.15937,1.0338 0,1.5119 0.11269,0.33808 0.59658,0.43722 0.75595,0.75596 0.11269,0.22538 -0.11269,0.53057 0,0.75595 0.15937,0.31874 0.59659,0.43721 0.75595,0.75595 0.22539,0.450763 -0.22538,1.061144 0,1.511906 0.15937,0.318739 0.59659,0.437214 0.75596,0.755952 0.22538,0.450763 -0.22539,1.061143 0,1.511906 0.20219,0.404378 1.30971,1.107527 1.5119,1.511903 0.22538,0.450763 -0.35636,1.155547 0,1.511906 0.17818,0.178178 0.57777,-0.178181 0.75595,0 0.17818,0.178178 -0.17818,0.577773 0,0.755952 0.17818,0.178181 0.57778,-0.178179 0.75596,0 0.58272,0.582726 2.15569,4.618709 2.26785,5.291666 0.16571,0.994222 0,2.015874 0,3.023809 0,2.519842 0,5.039683 0,7.559524 0,1.511906 0,3.023809 0,4.535715 0,0.503968 0.22538,1.061141 0,1.511904 -0.11269,0.225382 -0.53057,-0.112689 -0.75595,0 -1.86826,0.934132 0.26094,0.755954 -1.5119,0.755954 -0.50397,0 -1.35254,-0.478108 -1.51191,0 -3.34674,1.220787 0.55779,3.618293 0,5.291666 -0.12466,0.373986 -1.38724,2.649821 -1.5119,3.02381 -0.0797,0.239053 0.11269,0.530571 0,0.755951 -0.15937,0.318738 -0.59659,0.437216 -0.75596,0.755952 -0.11269,0.225382 0.17818,0.577773 0,0.755954 -0.39842,0.39842 -1.11348,0.357529 -1.5119,0.755952 -1.56409,1.564092 2.39014,-0.06114 -0.75595,1.511906 -0.22538,0.112688 -0.57778,-0.178181 -0.75596,0 -0.17817,0.178178 0.17818,0.57777 0,0.755951 -0.0243,0.02432 -2.08451,0 -2.26785,0 -1.25992,0 -2.51985,0 -3.77976,0 -0.49675,0 -1.84135,-0.142168 -2.26786,0 -0.53454,0.178179 -1.04308,0.443405 -1.51191,0.755952 -0.29651,0.197673 -0.50397,0.503968 -0.75595,0.755951 -0.25198,0.251987 -0.59658,0.437216 -0.75595,0.755955 -0.11269,0.22538 0.11269,0.530571 0,0.755951 -0.15937,0.318739 -0.50397,0.503968 -0.75595,0.755952 -0.25199,0.251984 -0.43722,0.596585 -0.75596,0.755954 -0.22538,0.112689 -0.57777,-0.178181 -0.75595,0 -0.17818,0.178179 0.17818,0.577771 0,0.755952 -0.17818,0.178178 -0.53057,-0.112692 -0.75595,0 -0.27037,0.135186 -2.81423,2.709436 -3.02381,3.023809 -0.31255,0.468823 -0.57777,0.977365 -0.75595,1.511906 -0.0797,0.239051 0.0611,0.511491 0,0.755951 -0.19327,0.773052 -0.56269,1.494805 -0.75596,2.267857 -0.0611,0.244461 0.1127,0.530571 0,0.755953 -0.15936,0.318737 -0.50396,0.503968 -0.75595,0.755952 -0.25198,1.007936 -0.37009,2.059162 -0.75595,3.02381 -0.13235,0.330871 -0.59658,0.437214 -0.75595,0.755952 -0.11269,0.225381 0.17818,0.577773 0,0.755952 -0.17818,0.17818 -0.57777,-0.178179 -0.75595,0 -0.17819,0.17818 0.17818,0.577773 0,0.755952 -0.17819,0.17818 -0.53058,-0.11269 -0.75596,0 -0.31873,0.159369 -0.50396,0.503969 -0.75595,0.755953 -0.39798,0.397982 -1.86411,2.065986 -2.26785,2.267857 -0.47691,0.238454 -3.30286,-0.238453 -3.77977,0 -0.63747,0.318738 -0.87443,1.193167 -1.5119,1.511905 -0.22538,0.11269 -0.53057,-0.112691 -0.75596,0 -0.31873,0.159369 -0.43721,0.596583 -0.75595,0.755952 -0.22538,0.112691 -0.57777,-0.17818 -0.75595,0 -0.17818,0.17818 0.23396,0.662368 0,0.755952 -1.19297,0.47719 -2.51237,0.544721 -3.77976,0.755953 -0.47746,0.07958 -1.90667,-0.180592 -2.26786,0 -0.31874,0.159369 -0.43721,0.596583 -0.75595,0.755952 -0.46825,0.234124 -2.80014,-0.223672 -3.02381,0 -0.17818,0.17818 0.17818,0.577773 0,0.755953 -0.15454,0.154544 -1.96813,-0.149865 -2.26786,0 -0.31874,0.159369 -0.43721,0.596583 -0.75595,0.755952 -0.60476,0.302381 -1.6631,-0.302381 -2.26786,0 -0.31874,0.159369 -0.43721,0.596584 -0.75595,0.755953 -0.60476,0.30238 -1.6631,-0.302382 -2.26786,0 -0.31873,0.159368 -0.43721,0.596583 -0.75595,0.755952 -0.22538,0.11269 -0.53057,-0.112691 -0.75595,0 -0.31874,0.159369 -0.43722,0.596584 -0.75595,0.755952 -0.22539,0.112691 -0.53058,-0.11269 -0.75596,0 -0.31873,0.159369 -0.41788,0.643262 -0.75595,0.755953 -0.4781,0.159368 -1.0338,-0.159369 -1.5119,0 -1.50431,0.501435 -0.35278,0.705555 -0.75595,1.511904 -0.31874,0.637475 -1.19317,0.87443 -1.51191,1.511905 -0.11269,0.225381 0.13978,0.546289 0,0.755952 -0.89442,1.341638 -2.79826,2.471088 -3.77976,3.779762 -0.33808,0.450763 -0.35753,1.113483 -0.75596,1.511905 -0.0484,0.04844 -2.88299,1.41803 -3.0238,1.511905 -0.59302,0.395345 -0.87443,1.193167 -1.51191,1.511905 -0.22538,0.11269 -0.53057,-0.112691 -0.75595,0 -0.31874,0.159368 -0.43722,0.596583 -0.75595,0.755952 -0.45077,0.225381 -1.15555,-0.356359 -1.51191,0 -0.17818,0.17818 0.22538,0.643262 0,0.755952 -0.47513,0.237567 -2.54868,-0.237566 -3.02381,0 -0.31873,0.159369 -0.43721,0.596584 -0.75595,0.755952 -1.04273,0.5213648 -0.67618,-0.915499 -1.51191,0.7559529 -0.11268,0.2253816 0.17818,0.5777727 0,0.7559524 -0.17817,0.1781797 -0.57777,-0.1781797 -0.75595,0 -1.56409,1.5640923 2.39014,-0.061141 -0.75595,1.5119048 -0.22538,0.1126908 -0.50397,0 -0.75595,0 -0.25199,0 -0.50397,0 -0.75596,0 -1.25991,0 -2.51984,0 -3.77976,0 -1.5119,0 -3.02381,0 -4.53571,0 -1.00794,0 -2.03545,0.1976726 -3.02381,0 -0.78137,-0.156274 -1.48185,-0.6249522 -2.26786,-0.7559524 -1.24277,-0.2071296 -2.55746,0.3055758 -3.77976,0 -0.54663,-0.1366575 -0.96527,-0.6192948 -1.5119,-0.7559524 -0.59465,-0.1486612 -3.74958,0 -4.53572,0 -3.27579,0 -6.55159,0 -9.82738,0 -2.79282,0 -5.65075,-0.3099366 -8.315475,0.7559524 -0.661743,0.2646971 -0.87443,1.1931674 -1.511905,1.5119048 -0.225381,0.1126906 -0.53057,-0.1126908 -0.755952,0 -0.318737,0.1593686 -0.437215,0.5965836 -0.755952,0.7559524 -0.450763,0.2253814 -1.061142,-0.2253816 -1.511905,0 -1.671452,0.8357262 -0.234588,0.4691764 -0.755952,1.5119046 -0.934132,1.8682642 -0.755953,-0.2609379 -0.755953,1.5119048 0,0.5039683 0.501638,1.5603127 0,1.5119048 -1.007492,-0.097223 -1.653741,-1.1675223 -2.480611,-1.7512836 z"
       id="path4498"
       inkscape:connector-curvature="0" />
    <path
       style="fill:#001700;fill-opacity:1;stroke-width:0.26458332"
       id="path4496"
       d="m 81.391498,3.0231347 c -1.970431,-1.2499544 -3.016079,-3.43597756 -3.920718,-5.5063702 -0.779703,-2.4099718 -1.401888,-4.855869 -2.293016,-7.2291008 -0.706383,-2.1022787 -1.471046,-4.2191417 -2.907907,-5.9377597 -1.199116,-0.846213 -2.339719,-1.754851 -3.415924,-2.753272 -2.302247,-2.53035 -4.939709,-4.665294 -7.758961,-6.585333 -1.229764,-1.03858 -2.663765,-1.938932 -3.673866,-3.219999 -1.071797,-1.359311 -1.778375,-3.026838 -2.535846,-4.56862 -0.743242,-0.736824 -1.402655,-4.020671 -2.098914,-4.602862 -0.342621,-0.379141 -0.947616,-1.030775 -1.171738,-1.397699 -0.810843,-1.327475 -1.998764,-4.083543 -2.522121,-5.296713 -1.345342,-3.118575 -2.781686,-6.711596 -4.04495,-9.821048 -5.207074,-11.93356 -10.458407,-23.837262 -15.234808,-35.951233 -2.499183,-6.283436 -4.729123,-12.670245 -6.175616,-19.280555 -0.482719,-1.98203 -0.518776,-3.89575 -0.05262,-5.86825 1.457624,-3.3755 2.800556,-6.80017 4.142666,-10.22744 1.725755,-4.45039 4.238032,-8.5058 7.10507,-12.29896 2.464142,-3.17985 5.495899,-5.84324 8.516694,-8.47526 3.035875,-2.65901 5.71672,-5.68922 8.479258,-8.62341 2.600049,-2.75329 5.473293,-5.21703 8.45196,-7.54661 2.387811,-1.67337 4.323662,-3.77749 6.001179,-6.13999 2.249121,-3.90322 5.120273,-7.27572 8.45265,-10.28028 2.75287,-2.44272 5.959001,-4.24955 9.01263,-6.26708 2.330135,-1.6242 4.636556,-3.28101 6.908821,-4.98467 3.75426,-2.63324 7.916497,-4.63089 11.916319,-6.84864 0.57574,-0.31923 2.29632,-1.28885 1.72138,-0.96817 -2.66389,1.4858 -5.310023,3.00323 -7.965037,4.50484 5.720087,-4.14021 11.964817,-7.66635 18.293567,-10.74959 1.27171,-0.61955 6.87846,-1.84559 8.09273,-2.12983 5.81327,-0.94537 11.89677,-2.64033 17.83264,-1.6392 0.80557,0.13586 1.58389,0.40117 2.37583,0.60175 3.08178,0.97156 5.45089,3.0778 7.9821,4.95938 3.57393,1.67551 7.71754,1.60211 11.58771,1.76252 3.26836,0.17669 6.66904,0.46257 9.68907,1.84522 1.45889,0.66791 3.32617,1.89528 4.67175,2.73438 4.44364,3.08308 8.70158,6.43785 12.93924,9.79791 2.79349,2.24114 5.37645,4.7918 7.25829,7.86505 1.13197,1.84864 2.21908,4.20862 3.16046,6.14284 1.71652,3.80244 3.85081,7.43384 5.44229,11.29399 0.95643,2.31981 1.58532,4.40419 2.36906,6.79797 1.30865,4.84173 2.62493,9.75314 2.74483,14.79767 0.0447,1.88181 -0.0756,2.62032 -0.25087,4.40186 -0.0166,1.12175 -0.18357,2.00666 0.37222,3.04585 1.11655,2.08767 3.90366,3.87717 5.58435,5.42752 0.94999,0.87631 1.84541,1.80998 2.76811,2.71498 0.91862,1.03061 1.93403,1.98249 2.75584,3.09183 4.32401,5.83694 6.95012,13.1272 8.93065,20.04689 1.21039,5.73008 1.75542,11.597532 1.61438,17.449565 -0.43732,5.226802 -2.5481,10.157198 -5.12816,14.669066 -1.91507,3.077507 -4.88449,5.207241 -7.59055,7.530013 -3.03966,2.609122 -2.30097,1.978281 -5.19836,4.778885 -4.65247,5.029071 -8.44442,10.793492 -12.39961,16.374331 -1.30244,1.70137 -1.82883,2.521129 -3.33695,4.000201 -0.9728,0.954062 -2.42159,2.130855 -3.60546,2.822917 -10.06341,5.882834 -7.58837,4.676587 -13.19775,7.254318 -2.61806,1.382136 -5.5222,1.974904 -8.29602,2.919257 -3.23488,0.787756 -6.25386,2.21402 -9.40398,3.260423 -4.01987,1.398262 -8.01672,2.98758 -11.70611,5.122467 14.61824,-8.42866 7.77863,-4.762302 4.91912,-2.330948 -1.33277,1.13321 -2.57748,2.37318 -3.82937,3.593365 -4.43214,4.741806 -10.02613,7.0188554 -15.77981,10.2109316 -1.61795,0.6522167 -3.27547,1.2237034 -4.99463,1.531484 -0.13764,0.020606 -0.27528,0.041211 -0.41291,0.061817 0,0 8.96569,-6.7443701 8.96569,-6.7443701 v 0 c 0.12031,-0.022651 0.24061,-0.045304 0.36092,-0.067956 1.61175,-0.3641241 3.17145,-0.9346383 4.68854,-1.5837606 -2.77217,1.6309093 -5.55498,3.2438641 -8.31651,4.8927286 -0.35321,0.2108983 0.73602,-0.369139 1.09038,-0.5781201 1.63868,-0.9664213 3.07112,-2.2243989 4.38573,-3.5910496 1.68237,-1.6363678 3.33484,-3.4330908 5.16602,-4.9023178 3.66989,-2.944503 9.41199,-3.104344 12.11987,-7.235526 3.78705,-1.976597 7.76215,-3.579961 11.79945,-4.970516 3.17211,-1.174595 6.29863,-2.479376 9.57256,-3.358697 2.71251,-0.840798 5.46009,-1.59711 8.01551,-2.868331 4.26557,-2.031415 3.25483,-1.625372 -5.06486,3.259034 -0.64917,0.381118 1.30099,-0.760978 1.91774,-1.19259 2.111,-1.477318 3.88704,-3.328965 5.43279,-5.382828 2.00195,-2.755452 3.99886,-5.510853 5.96932,-8.288875 0.86169,-1.214843 3.17099,-4.470834 4.09901,-5.612289 0.75206,-0.925031 1.57844,-1.78707 2.36766,-2.680605 2.70293,-2.701023 2.23755,-2.326714 5.08042,-4.813033 2.03227,-1.777386 4.2837,-3.424261 6.10893,-5.428329 0.47525,-0.521814 0.87755,-1.105662 1.31633,-1.65849 2.7264,-4.321321 4.99821,-9.064115 5.45074,-14.218981 0.18728,-5.800796 -0.0148,-11.641275 -1.17308,-17.345268 -2.01066,-8.351203 -4.9927,-16.595933 -11.337,-22.682733 -4.83919,-4.35292 -0.84944,-0.88203 -5.5458,-4.67532 -1.17265,-0.94716 -2.87962,-2.21375 -3.67508,-3.60517 -0.72331,-1.26521 -0.52325,-2.1332 -0.49968,-3.50303 0.47349,-2.4887 0.86536,-4.97032 0.68653,-7.52092 -0.27474,-3.9185 -1.3729,-7.74467 -2.458,-11.49507 -2.21878,-6.13732 -4.95944,-12.07046 -7.80278,-17.94118 -2.65296,-5.14714 -5.67564,-9.97543 -10.40152,-13.4855 -4.23391,-3.29815 -8.42257,-6.6768 -12.86141,-9.6949 -1.78846,-1.0461 -2.75623,-1.70101 -4.66292,-2.47896 -2.98082,-1.21621 -6.24659,-1.4931 -9.42738,-1.6442 -4.13081,-0.15781 -8.60943,-0.0173 -12.33346,-2.05039 -2.34715,-1.82008 -4.48613,-3.93178 -7.42698,-4.79452 -0.74286,-0.17309 -1.47553,-0.39805 -2.2286,-0.51926 -5.72787,-0.92197 -11.58395,0.57846 -17.18153,1.58893 -1.43543,0.37312 -2.88797,0.68574 -4.30631,1.11935 -1.33759,0.40893 -4.89235,2.44273 -3.95358,1.40587 1.58894,-1.75495 4.06534,-2.42947 6.04953,-3.72081 0.79725,-0.51886 -1.67633,0.90192 -2.4858,1.4015 -0.70493,0.43506 -1.38115,0.91576 -2.0533,1.39992 -0.55087,0.39678 -1.07619,0.82788 -1.61428,1.24182 -3.5493,2.12106 -7.088951,4.25834 -10.647894,6.36318 -0.610659,0.36115 -2.517694,1.30576 -1.908548,0.94206 2.908384,-1.7365 5.85813,-3.40281 8.779822,-5.11681 0.5874,-0.3446 -2.48301,1.35201 -1.7466,1.05991 -2.065609,1.34374 0.23595,-0.20474 -1.870386,1.38693 -1.698989,1.28385 -3.549041,2.37083 -5.228534,3.68397 -3.021289,2.13967 -6.349378,3.82752 -9.209418,6.20645 -3.334182,2.85264 -6.335355,6.00507 -8.379156,9.9382 -1.540418,2.52248 -3.413338,4.76227 -5.857934,6.46921 -3.035227,2.30436 -6.002511,4.69644 -8.654964,7.44475 -2.774893,2.94571 -5.426327,6.02712 -8.445292,8.72786 -3.01919,2.58973 -6.021265,5.23405 -8.590824,8.28218 -2.971792,3.66303 -5.575456,7.64898 -7.319007,12.05194 -1.271863,3.3022 -2.320735,6.68735 -3.752517,9.92687 -0.598853,1.82135 -0.641345,3.65889 -0.397518,5.56047 0.764977,6.76411 2.678901,13.32293 4.903618,19.740088 4.495959,12.20381 9.774277,24.089089 15.25605,35.879812 2.104889,4.332041 4.55678,10.34692 7.650631,14.098833 0.0022,0.0026 1.233631,1.17749 1.405621,1.341588 1.007449,1.449508 0.891561,3.513103 1.910416,5.004838 0.355928,0.755212 1.018364,2.212437 1.452115,2.922633 1.105568,1.810187 2.765665,3.132936 4.419338,4.415978 2.843236,1.988012 5.465667,4.22374 8.030855,6.556187 1.201499,0.972025 2.522878,1.808951 3.609202,2.907651 1.318367,1.919019 2.150248,4.098802 2.904502,6.291635 0.936776,2.345787 1.575176,4.768311 2.29033,7.1877014 0.786832,1.8854653 1.744289,3.8793462 3.741317,4.7033544 0,0 -9.369314,6.1646755 -9.369314,6.1646755 z"
       inkscape:connector-curvature="0" />
  </g>
</svg>
